<svg width="115" height="64" viewBox="0 0 115 64" fill="none" xmlns="http://www.w3.org/2000/svg">
<path d="M48.8464 32.1714C48.8464 30.9883 49.0557 29.8325 49.4743 28.7041C49.9111 27.5574 50.5391 26.5199 51.3581 25.5917C52.1772 24.6452 53.1782 23.899 54.3613 23.3529C55.5444 22.7887 56.8913 22.5066 58.4019 22.5066C60.1857 22.5066 61.7237 22.8979 63.0159 23.6806C64.3264 24.4632 65.3002 25.4825 65.9372 26.7383L63.0432 28.7314C62.7156 28.0033 62.2879 27.43 61.7601 27.0114C61.2322 26.5745 60.668 26.2742 60.0674 26.1104C59.4667 25.9284 58.8752 25.8374 58.2927 25.8374C57.3463 25.8374 56.5181 26.0285 55.8083 26.4107C55.1166 26.793 54.5342 27.2935 54.061 27.9123C53.5877 28.5312 53.2328 29.2228 52.9962 29.9873C52.7778 30.7517 52.6686 31.5161 52.6686 32.2806C52.6686 33.136 52.8051 33.9642 53.0781 34.765C53.3511 35.5477 53.7334 36.2484 54.2248 36.8673C54.7344 37.4679 55.3351 37.9502 56.0267 38.3143C56.7365 38.6601 57.5101 38.833 58.3473 38.833C58.948 38.833 59.5577 38.7329 60.1766 38.5327C60.7954 38.3325 61.3687 38.014 61.8966 37.5771C62.4244 37.1403 62.8339 36.5761 63.1251 35.8844L66.2102 37.659C65.828 38.6237 65.2001 39.4427 64.3264 40.1162C63.471 40.7896 62.5063 41.2993 61.4324 41.6451C60.3586 41.9909 59.2938 42.1638 58.2381 42.1638C56.8549 42.1638 55.5899 41.8817 54.4432 41.3175C53.2965 40.735 52.3046 39.9706 51.4673 39.0241C50.6483 38.0595 50.0021 36.9856 49.5289 35.8025C49.0739 34.6012 48.8464 33.3909 48.8464 32.1714ZM76.7694 42.1365C75.3497 42.1365 74.0574 41.8635 72.8925 41.3175C71.7459 40.7714 70.7539 40.0343 69.9167 39.106C69.0976 38.1596 68.4606 37.1039 68.0055 35.939C67.5505 34.7559 67.323 33.5456 67.323 32.3079C67.323 31.0156 67.5596 29.787 68.0328 28.6222C68.5243 27.4391 69.1886 26.3925 70.0259 25.4825C70.8813 24.5542 71.8824 23.8262 73.029 23.2983C74.1939 22.7523 75.468 22.4793 76.8513 22.4793C78.2528 22.4793 79.5269 22.7614 80.6735 23.3256C81.8384 23.8899 82.8304 24.6452 83.6494 25.5917C84.4685 26.5381 85.1055 27.5938 85.5605 28.7587C86.0156 29.9235 86.2431 31.1248 86.2431 32.3625C86.2431 33.6366 86.0065 34.8652 85.5332 36.0482C85.06 37.2131 84.3957 38.2597 83.5402 39.1879C82.703 40.098 81.7019 40.8169 80.537 41.3448C79.3903 41.8726 78.1345 42.1365 76.7694 42.1365ZM71.1452 32.3079C71.1452 33.1451 71.2726 33.9551 71.5275 34.7377C71.7823 35.5204 72.1463 36.2211 72.6195 36.84C73.111 37.4406 73.7025 37.9229 74.3941 38.287C75.104 38.6328 75.9048 38.8057 76.7967 38.8057C77.7067 38.8057 78.5167 38.6237 79.2265 38.2597C79.9364 37.8774 80.5279 37.3769 81.0011 36.7581C81.4744 36.121 81.8293 35.4203 82.0659 34.6558C82.3207 33.8732 82.4481 33.0905 82.4481 32.3079C82.4481 31.4706 82.3116 30.6698 82.0386 29.9053C81.7838 29.1227 81.4107 28.4311 80.9192 27.8304C80.446 27.2116 79.8545 26.7292 79.1446 26.3834C78.453 26.0194 77.6703 25.8374 76.7967 25.8374C75.8684 25.8374 75.0494 26.0285 74.3395 26.4107C73.6479 26.7748 73.0654 27.2662 72.5922 27.885C72.119 28.5039 71.755 29.1955 71.5002 29.9599C71.2635 30.7244 71.1452 31.507 71.1452 32.3079ZM100.602 27.6939C100.474 27.5665 100.238 27.3936 99.892 27.1752C99.5644 26.9568 99.1549 26.7474 98.6634 26.5472C98.1902 26.347 97.6715 26.1741 97.1072 26.0285C96.543 25.8647 95.9697 25.7828 95.3872 25.7828C94.368 25.7828 93.5944 25.9739 93.0666 26.3561C92.5569 26.7383 92.3021 27.2753 92.3021 27.9669C92.3021 28.4948 92.4659 28.9134 92.7936 29.2228C93.1212 29.5322 93.6126 29.7961 94.2678 30.0146C94.9231 30.233 95.7421 30.4696 96.725 30.7244C97.9991 31.0338 99.1002 31.416 100.029 31.8711C100.975 32.3079 101.694 32.8903 102.185 33.6184C102.695 34.3282 102.95 35.2747 102.95 36.4578C102.95 37.4952 102.759 38.3871 102.376 39.1333C101.994 39.8614 101.466 40.4529 100.793 40.9079C100.12 41.363 99.3551 41.6997 98.4996 41.9181C97.6442 42.1183 96.7341 42.2184 95.7694 42.2184C94.8048 42.2184 93.8401 42.1183 92.8755 41.9181C91.9108 41.7179 90.9825 41.4358 90.0907 41.0717C89.1988 40.6895 88.3798 40.2345 87.6335 39.7067L89.2989 36.4578C89.4627 36.6216 89.754 36.84 90.1726 37.113C90.5912 37.3678 91.1009 37.6317 91.7015 37.9047C92.3021 38.1596 92.9574 38.378 93.6672 38.56C94.3771 38.742 95.096 38.833 95.824 38.833C96.8433 38.833 97.6169 38.6601 98.1447 38.3143C98.6725 37.9684 98.9364 37.477 98.9364 36.84C98.9364 36.2575 98.7271 35.8025 98.3085 35.4749C97.8899 35.1473 97.3074 34.8652 96.5612 34.6285C95.8149 34.3737 94.9322 34.1007 93.9129 33.8095C92.6935 33.4637 91.6742 33.0814 90.8551 32.6628C90.0361 32.226 89.4263 31.68 89.0259 31.0247C88.6255 30.3695 88.4253 29.5504 88.4253 28.5676C88.4253 27.2389 88.7347 26.1286 89.3535 25.2368C89.9906 24.3267 90.846 23.6442 91.9199 23.1891C92.9938 22.7159 94.1859 22.4793 95.4964 22.4793C96.4065 22.4793 97.2619 22.5794 98.0628 22.7796C98.8818 22.9798 99.6463 23.2437 100.356 23.5714C101.066 23.899 101.703 24.2539 102.267 24.6361L100.602 27.6939ZM105.797 42V22.6158H109.564V42H105.797Z" fill="white"/>
<path d="M18.7535 19.442C17.5215 21.9117 15.9348 25.2494 13.3623 29.2221C11.8987 31.4766 8.25487 31.7166 7.3999 31.7412H0C0.742922 31.7412 4.68563 31.6283 6.0185 29.2221C11.07 20.1018 10.8124 6.25008 13.9522 6.25008C15.5054 6.25008 17.0287 13.0841 18.7535 19.442Z" fill="#548CE4"/>
<path d="M39.2547 31.7412H29.1928C28.8569 31.7412 24.1115 31.6918 22.2187 28.9222C20.953 27.0699 19.8142 23.3442 18.7539 19.442C20.2436 16.45 21.2032 14.7424 22.7301 14.7424C25.2391 14.7424 28.405 23.9616 31.7205 28.8339C33.6133 31.6177 38.4071 31.7412 39.2547 31.7412Z" fill="#83E09F"/>
<path d="M44.5441 31.7448C43.8423 31.7448 39.8324 31.8507 38.4883 34.278C33.4369 43.3985 33.6983 57.25 30.5584 57.25C29.0052 57.25 27.4633 50.4442 25.7383 44.0971C26.9667 41.6273 28.561 38.2719 31.1482 34.278C32.8096 31.713 37.2936 31.7661 37.2936 31.7661L43.5137 31.7448H44.5441Z" fill="#E9EA01"/>
<path d="M25.7397 44.0972C24.2575 47.0608 23.3017 48.7544 21.7786 48.7544C19.2732 48.7544 16.0774 39.5564 12.7918 34.6629C10.6563 31.4839 5.12689 31.7662 5.12689 31.7662L2.88672 31.745H15.3345C15.6705 31.745 20.4307 31.7944 22.2938 34.578C23.5445 36.4445 24.6757 40.1844 25.7397 44.0972Z" fill="#FF6064"/>
<path d="M15.9666 31.7695H37.0757C37.215 31.7653 37.2949 31.7659 37.2949 31.7659L43.5149 31.7449L29.193 31.7413C28.857 31.7413 24.1118 31.6919 22.2188 28.9223C20.9531 27.07 19.8145 23.3443 18.754 19.4421C17.522 21.9118 15.9353 25.2495 13.363 29.2222C11.8994 31.4767 8.25537 31.7167 7.40039 31.7413L15.3341 31.7449C15.3988 31.7449 15.6276 31.747 15.9666 31.7695Z" fill="#01B6A9"/>
<path d="M15.9648 31.7695C17.3911 31.865 20.7866 32.3289 22.2918 34.5779C23.5425 36.4445 24.6737 40.1842 25.7378 44.0972C26.966 41.6273 28.5603 38.272 31.1477 34.2781C32.5899 32.0516 36.157 31.7979 37.0739 31.7695H15.9648Z" fill="#E2D101"/>
</svg>
