<svg width="1600" height="1109" viewBox="0 0 1600 1109" fill="none" xmlns="http://www.w3.org/2000/svg">
<path d="M67 0L67 1109" stroke="#6152B2"/>
<line x1="3.5" y1="-2.18557e-08" x2="3.50005" y2="1109" stroke="#6152B2"/>
<line x1="131.5" y1="-2.18557e-08" x2="131.5" y2="1109" stroke="#6152B2"/>
<line x1="195.5" y1="-2.18557e-08" x2="195.5" y2="1109" stroke="#6152B2"/>
<line x1="323.5" y1="-2.18557e-08" x2="323.5" y2="1109" stroke="#6152B2"/>
<line x1="387.5" y1="-2.18557e-08" x2="387.5" y2="1109" stroke="#6152B2"/>
<line x1="451.5" y1="-2.18557e-08" x2="451.5" y2="1109" stroke="#6152B2"/>
<line x1="515.5" y1="-2.18557e-08" x2="515.5" y2="1109" stroke="#6152B2"/>
<line x1="579.5" y1="-2.18557e-08" x2="579.5" y2="1109" stroke="#6152B2"/>
<line x1="643.5" y1="-2.18557e-08" x2="643.5" y2="1109" stroke="#6152B2"/>
<line x1="707.5" y1="-2.18557e-08" x2="707.5" y2="1109" stroke="#6152B2"/>
<line x1="771.5" y1="-2.18557e-08" x2="771.5" y2="1109" stroke="#6152B2"/>
<line x1="1091.5" y1="-2.18557e-08" x2="1091.5" y2="1109" stroke="#6152B2"/>
<line x1="1345.5" y1="-2.18557e-08" x2="1345.5" y2="1109" stroke="#6152B2"/>
<line x1="1155.5" y1="-2.18557e-08" x2="1155.5" y2="1109" stroke="#6152B2"/>
<line x1="1408.5" y1="-2.18557e-08" x2="1408.5" y2="1109" stroke="#6152B2"/>
<line x1="835.5" y1="-2.18557e-08" x2="835.5" y2="1109" stroke="#6152B2"/>
<line x1="963.5" y1="-2.18557e-08" x2="963.5" y2="1109" stroke="#6152B2"/>
<line x1="1218.5" y1="-2.18557e-08" x2="1218.5" y2="1109" stroke="#6152B2"/>
<path d="M1472 0L1472 1109" stroke="#6152B2"/>
<line x1="899.5" y1="-2.18557e-08" x2="899.5" y2="1109" stroke="#6152B2"/>
<line x1="1027.5" y1="-2.18557e-08" x2="1027.5" y2="1109" stroke="#6152B2"/>
<line x1="1281.5" y1="-2.18557e-08" x2="1281.5" y2="1109" stroke="#6152B2"/>
<line x1="1536.5" y1="-2.18557e-08" x2="1536.5" y2="1109" stroke="#6152B2"/>
<line x1="259.5" y1="-2.18557e-08" x2="259.5" y2="1109" stroke="#6152B2"/>
<path d="M1613 128L-6.00004 128" stroke="#6152B2"/>
<line x1="1613" y1="64.5" x2="-6" y2="64.5" stroke="#6152B2"/>
<line x1="1613" y1="192.5" x2="-6" y2="192.5" stroke="#6152B2"/>
<line x1="1613" y1="256.5" x2="-6" y2="256.5" stroke="#6152B2"/>
<line x1="1613" y1="384.5" x2="-6" y2="384.5" stroke="#6152B2"/>
<line x1="1613" y1="448.5" x2="-6" y2="448.5" stroke="#6152B2"/>
<line x1="1613" y1="512.5" x2="-6" y2="512.5" stroke="#6152B2"/>
<line x1="1613" y1="576.5" x2="-6" y2="576.5" stroke="#6152B2"/>
<line x1="1613" y1="640.5" x2="-6" y2="640.5" stroke="#6152B2"/>
<line x1="1613" y1="704.5" x2="-6" y2="704.5" stroke="#6152B2"/>
<line x1="1613" y1="768.5" x2="-6" y2="768.5" stroke="#6152B2"/>
<line x1="1613" y1="832.5" x2="-6" y2="832.5" stroke="#6152B2"/>
<line x1="1613" y1="896.5" x2="-6" y2="896.5" stroke="#6152B2"/>
<line x1="1613" y1="1024.5" x2="-6" y2="1024.5" stroke="#6152B2"/>
<line x1="1613" y1="960.5" x2="-6" y2="960.5" stroke="#6152B2"/>
<line x1="1613" y1="1088.5" x2="-6" y2="1088.5" stroke="#6152B2"/>
<line x1="1613" y1="320.5" x2="-6" y2="320.5" stroke="#6152B2"/>
</svg>
