<svg width="148" height="148" viewBox="0 0 148 148" fill="none" xmlns="http://www.w3.org/2000/svg">
<path fill-rule="evenodd" clip-rule="evenodd" d="M17.3457 47.2766V18.9429C25.8399 20.6873 39.2832 24.6711 50.0609 33.6047C66.6426 47.3558 66.8924 82.0452 66.8924 82.0452C66.8924 82.0452 61.0823 70.0404 50.4512 61.7508C39.6197 53.3085 26.1661 49.2235 17.3457 47.2766Z" fill="black"/>
<path fill-rule="evenodd" clip-rule="evenodd" d="M97.2359 34.0619C108.007 25.1318 121.44 21.1443 129.937 19.3999V47.8369C121.149 49.8151 107.733 53.8927 96.8457 62.2082C85.9647 70.5126 80.4023 82.5009 80.4023 82.5009C80.4023 82.5009 80.6522 47.8112 97.2359 34.0619" fill="black"/>
<path fill-rule="evenodd" clip-rule="evenodd" d="M147.274 62.7884V110.269C147.274 110.269 137.349 110.324 119.778 116.069C93.7648 124.573 78.166 147.74 78.166 147.74L83.0222 109.185C84.2755 99.2206 88.3161 83.3626 104.272 73.2255C125.188 59.951 147.274 62.7884 147.274 62.7884" fill="black"/>
<path fill-rule="evenodd" clip-rule="evenodd" d="M0 62.7884V110.269C0 110.269 9.92503 110.324 27.4977 116.069C53.513 124.573 69.1056 147.74 69.1056 147.74L64.2535 109.185C63.0003 99.2206 58.9617 83.3626 43.0016 73.2255C22.0882 59.951 0 62.7884 0 62.7884Z" fill="black"/>
<path fill-rule="evenodd" clip-rule="evenodd" d="M73.64 41.0784C73.64 41.0784 70.5305 30.6432 64.898 24.1145C59.3894 17.7331 54.6777 14.7815 54.6777 14.7815L73.6379 0L92.6063 14.7815C92.6063 14.7815 87.649 17.7331 82.384 24.1145C76.9105 30.7536 73.6379 41.0784 73.6379 41.0784" fill="black"/>
</svg>
