<?xml version="1.0" encoding="UTF-8" standalone="no"?>
<svg
   width="96"
   height="109"
   viewBox="0 0 96 109"
   fill="none"
   version="1.1"
   id="svg14"
   sodipodi:docname="logo-less-saturation.svg"
   inkscape:version="1.1.1 (3bf5ae0d25, 2021-09-20)"
   xmlns:inkscape="http://www.inkscape.org/namespaces/inkscape"
   xmlns:sodipodi="http://sodipodi.sourceforge.net/DTD/sodipodi-0.dtd"
   xmlns="http://www.w3.org/2000/svg"
   xmlns:svg="http://www.w3.org/2000/svg">
  <defs
     id="defs18" />
  <sodipodi:namedview
     id="namedview16"
     pagecolor="#ffffff"
     bordercolor="#999999"
     borderopacity="1"
     inkscape:pageshadow="0"
     inkscape:pageopacity="0"
     inkscape:pagecheckerboard="0"
     showgrid="false"
     inkscape:zoom="7.6330275"
     inkscape:cx="48.015024"
     inkscape:cy="54.565505"
     inkscape:window-width="1920"
     inkscape:window-height="1017"
     inkscape:window-x="-8"
     inkscape:window-y="-8"
     inkscape:window-maximized="1"
     inkscape:current-layer="svg14" />
  <path
     d="M40.0812 28.1945C37.448 33.4729 34.0568 40.6065 28.5587 49.0971C25.4306 53.9156 17.6428 54.4286 15.8155 54.4812H0C1.58782 54.4812 10.0144 54.2399 12.8631 49.0971C23.6594 29.6047 23.1089 7.86077e-05 29.8195 7.86077e-05C33.1391 7.86077e-05 36.3948 14.6061 40.0812 28.1945Z"
     fill="#548CE4"
     id="path2"
     style="fill:#748cbe;fill-opacity:1" />
  <path
     d="M83.8975 54.4812H62.3927C61.6746 54.4812 51.5326 54.3755 47.4872 48.4562C44.782 44.4973 42.3481 36.5346 40.082 28.1945C43.2658 21.7999 45.3167 18.1503 48.5802 18.1503C53.9425 18.1503 60.7089 37.8541 67.7949 48.2676C71.8403 54.2172 82.086 54.4812 83.8975 54.4812Z"
     fill="#83E09F"
     id="path4"
     style="fill:#acd6b7;fill-opacity:1" />
  <path
     d="M95.2017 54.4889C93.7018 54.4889 85.1316 54.7152 82.259 59.9029C71.4627 79.3957 72.0213 109 65.3106 109C61.9911 109 58.6955 94.4543 55.0088 80.8889C57.6343 75.6101 61.0416 68.439 66.5711 59.9029C70.1221 54.4209 79.7054 54.5342 79.7054 54.5342L92.9995 54.4889H95.2017Z"
     fill="#E9EA01"
     id="path6"
     style="fill:#e7e880;fill-opacity:1" />
  <path
     d="M55.0118 80.889C51.8439 87.2229 49.8011 90.8425 46.5457 90.8425C41.1911 90.8425 34.3608 71.1841 27.3387 60.7253C22.7745 53.9311 10.9568 54.5343 10.9568 54.5343L6.16895 54.489H32.773C33.4911 54.489 43.6649 54.5947 47.6468 60.544C50.3199 64.5332 52.7376 72.5263 55.0118 80.889Z"
     fill="#FF6064"
     id="path8"
     style="fill:#e27577;fill-opacity:1" />
  <path
     d="M34.1247 54.5417H79.2401C79.538 54.5326 79.7086 54.5341 79.7086 54.5341L93.0024 54.4891L62.3928 54.4814C61.6747 54.4814 51.533 54.3758 47.4873 48.4564C44.7821 44.4976 42.3485 36.5348 40.0821 28.1947C37.4489 33.4731 34.0577 40.6067 28.56 49.0974C25.4319 53.9158 17.6437 54.4288 15.8164 54.4814L32.7729 54.4891C32.911 54.4891 33.4 54.4935 34.1247 54.5417Z"
     fill="#01B6A9"
     id="path10"
     style="fill:#72ada6;fill-opacity:1" />
  <path
     d="M34.1211 54.5415C37.1694 54.7456 44.4264 55.7371 47.6435 60.5439C50.3165 64.5331 52.7342 72.5258 55.0084 80.8889C57.6335 75.6102 61.0409 68.439 66.5708 59.9029C69.6531 55.1444 77.2769 54.6022 79.2365 54.5415H34.1211Z"
     fill="#E2D101"
     id="path12"
     style="fill:#dbd082;fill-opacity:1" />
</svg>
