<svg width="59" height="72" viewBox="0 0 59 72" fill="none" xmlns="http://www.w3.org/2000/svg">
<path fill-rule="evenodd" clip-rule="evenodd" d="M6.94727 23.3418V9.79102C10.3501 10.6253 15.7355 12.5306 20.0531 16.8031C26.6958 23.3796 26.7958 39.97 26.7958 39.97C26.7958 39.97 24.4683 34.2286 20.2094 30.2641C15.8703 26.2265 10.4808 24.2728 6.94727 23.3418Z" fill="white"/>
<path fill-rule="evenodd" clip-rule="evenodd" d="M38.9525 17.0209C43.2676 12.7501 48.6489 10.8431 52.0526 10.0088V23.6089C48.5323 24.5549 43.1576 26.5051 38.7962 30.482C34.4373 34.4536 32.209 40.187 32.209 40.187C32.209 40.187 32.3091 23.5966 38.9525 17.0209Z" fill="white"/>
<path fill-rule="evenodd" clip-rule="evenodd" d="M59.0002 30.7609V53.4688C59.0002 53.4688 55.0242 53.4952 47.9854 56.2427C37.5644 60.3103 31.3154 71.3901 31.3154 71.3901L33.2608 52.9505C33.7629 48.185 35.3816 40.6007 41.7736 35.7525C50.1525 29.4038 59.0002 30.7609 59.0002 30.7609Z" fill="white"/>
<path fill-rule="evenodd" clip-rule="evenodd" d="M0 30.7609V53.4691C0 53.4691 3.976 53.4955 11.0157 56.243C21.4375 60.3107 27.684 71.3906 27.684 71.3906L25.7402 52.9507C25.2381 48.1852 23.6203 40.6008 17.2266 35.7526C8.84861 29.4038 0 30.7609 0 30.7609Z" fill="white"/>
<path fill-rule="evenodd" clip-rule="evenodd" d="M29.4987 20.3772C29.4987 20.3772 28.253 15.3864 25.9966 12.264C23.7898 9.212 21.9023 7.8004 21.9023 7.8004L29.4979 0.730957L37.0967 7.8004C37.0967 7.8004 35.1107 9.212 33.0016 12.264C30.8089 15.4392 29.4979 20.3772 29.4979 20.3772" fill="white"/>
</svg>
