<?xml version="1.0" encoding="UTF-8" standalone="no"?>
<svg
   xmlns:dc="http://purl.org/dc/elements/1.1/"
   xmlns:cc="http://creativecommons.org/ns#"
   xmlns:rdf="http://www.w3.org/1999/02/22-rdf-syntax-ns#"
   xmlns:svg="http://www.w3.org/2000/svg"
   xmlns="http://www.w3.org/2000/svg"
   xmlns:sodipodi="http://sodipodi.sourceforge.net/DTD/sodipodi-0.dtd"
   xmlns:inkscape="http://www.inkscape.org/namespaces/inkscape"
   width="100%"
   height="100%"
   viewBox="0 0 2763 2938"
   version="1.1"
   xml:space="preserve"
   style="fill-rule:evenodd;clip-rule:evenodd;stroke-linecap:round;stroke-linejoin:round;stroke-miterlimit:1.5;"
   id="svg976"
   sodipodi:docname="logo-round-white.svg"
   inkscape:version="0.92.3 (2405546, 2018-03-11)"><metadata
     id="metadata982"><rdf:RDF><cc:Work
         rdf:about=""><dc:format>image/svg+xml</dc:format><dc:type
           rdf:resource="http://purl.org/dc/dcmitype/StillImage" /><dc:title></dc:title></cc:Work></rdf:RDF></metadata><defs
     id="defs980" /><sodipodi:namedview
     pagecolor="#ffffff"
     bordercolor="#666666"
     borderopacity="1"
     objecttolerance="10"
     gridtolerance="10"
     guidetolerance="10"
     inkscape:pageopacity="0"
     inkscape:pageshadow="2"
     inkscape:window-width="1920"
     inkscape:window-height="1017"
     id="namedview978"
     showgrid="false"
     inkscape:zoom="0.22719837"
     inkscape:cx="1061.4133"
     inkscape:cy="1789.6641"
     inkscape:window-x="-8"
     inkscape:window-y="-8"
     inkscape:window-maximized="1"
     inkscape:current-layer="svg976" /><path
     d="M329.167,1507.54l238.65,0l140.075,-266.805l114.137,266.805l166.017,0l98.571,201.366l311.283,-946.408l269.775,1354.17l269.779,-875.93l93.383,266.805l160.83,0"
     style="fill:none;stroke:#ffffff;stroke-width:78.13px;stroke-opacity:1"
     id="path970" /><path
     d="M2233.33,1858.33c-0.316,14.834 -4.595,-573.254 0,-575l279.167,575c53.138,-204.35 53.346,-523.783 0,-733.333"
     style="fill:none;stroke:#ffffff;stroke-width:78.13px;stroke-opacity:1"
     id="path972" /><path
     d="M2479.17,954.167c-226.504,-448.405 -626.038,-673.175 -1087.5,-662.5c-645.621,14.933 -1198.86,523.004 -1195.83,1204.17c2.75,618.475 447.263,1172.14 1195.83,1220.83c459.683,-16.8 856.537,-241.371 1087.5,-658.334"
     style="fill:none;stroke:#ffffff;stroke-width:78.13px;fill-opacity:1;stroke-opacity:0.76884425"
     id="path974" /></svg>