<?xml version="1.0" encoding="UTF-8" standalone="no"?><!DOCTYPE svg PUBLIC "-//W3C//DTD SVG 1.1//EN" "http://www.w3.org/Graphics/SVG/1.1/DTD/svg11.dtd"><svg width="100%" height="100%" viewBox="0 0 9980 2938" version="1.1" xmlns="http://www.w3.org/2000/svg" xmlns:xlink="http://www.w3.org/1999/xlink" xml:space="preserve" xmlns:serif="http://www.serif.com/" style="fill-rule:evenodd;clip-rule:evenodd;stroke-linecap:round;stroke-linejoin:round;stroke-miterlimit:1.5;"><path id="E" d="M9794.54,1677.89c-32.967,28.412 -77.075,47.779 -131.621,47.862c-117.754,-6.046 -178.413,-61.446 -173.504,-173.5c0.991,-98.433 69.496,-155.817 149.571,-161.538c96.766,13.634 153.083,63.48 155.554,161.538l-305.125,0" style="fill:none;stroke:#dc712b;stroke-width:78.13px;"/><path id="N" d="M9365.08,1725.45l0,-244.704c-20.454,-111.737 -230.146,-103.308 -257.329,29.325l0,215.379l0.246,-323.071" style="fill:none;stroke:#dc712b;stroke-width:78.13px;"/><path id="E1" serif:id="E" d="M8949.67,1677.89c-32.967,28.412 -77.071,47.779 -131.621,47.862c-117.754,-6.046 -178.408,-61.446 -173.5,-173.5c0.987,-98.433 69.496,-155.817 149.567,-161.538c96.766,13.634 153.087,63.48 155.554,161.538l-305.121,0" style="fill:none;stroke:#dc712b;stroke-width:78.13px;"/><g id="T"><path d="M8263.46,1402.68l227.35,0" style="fill:none;stroke:#dc712b;stroke-width:78.13px;"/><path d="M8347.25,1259.09l0,424.779c22.3,35.537 71.458,62.867 155.554,17.95" style="fill:none;stroke:#dc712b;stroke-width:78.13px;"/></g><path id="U" d="M7875.13,1366.78l0,281.196c20.708,111.688 230.383,102.779 257.262,-29.917l0.001,-251.279l-0.001,358.971" style="fill:none;stroke:#dc712b;stroke-width:78.13px;"/><path id="E2" serif:id="E" d="M7721.92,1677.89c-32.971,28.412 -77.075,47.779 -131.625,47.862c-117.75,-6.046 -178.409,-61.446 -173.5,-173.5c0.991,-98.433 69.495,-155.817 149.57,-161.538c96.767,13.634 153.084,63.48 155.555,161.538l-305.125,0" style="fill:none;stroke:#dc712b;stroke-width:78.13px;"/><path id="P" d="M7028.96,1933.33l0,-526.487l0,77.775c42.192,-69.613 134.392,-81.833 197.434,-29.913c63.212,52.059 70,167.071 0,245.296c-81.546,42.025 -161.984,36.871 -197.434,-29.916" style="fill:none;stroke:#dc712b;stroke-width:78.13px;"/><path id="A" d="M6650.79,1428.42c115.154,-44.308 178.466,-27.708 222.291,47.863l0,245.295l0,-154.375c-108.854,-1.495 -144.866,-7.729 -210.325,23.934c-36.487,17.646 -35.491,127.112 0,130.441c132.992,12.48 124.3,-19.075 210.325,-38.366" style="fill:none;stroke:#dc712b;stroke-width:78.13px;"/><path id="R" d="M6501.21,1414.64c-20.879,-19.075 -161.537,34.912 -161.537,125.641l0,185.467l0,-323.071" style="fill:none;stroke:#dc712b;stroke-width:78.13px;"/><path id="E3" serif:id="E" d="M6188.29,1677.89c-32.971,28.412 -77.075,47.779 -131.625,47.862c-117.75,-6.046 -178.409,-61.446 -173.5,-173.5c0.991,-98.433 69.496,-155.817 149.57,-161.538c96.767,13.634 153.084,63.48 155.555,161.538l-305.125,0" style="fill:none;stroke:#dc712b;stroke-width:78.13px;"/><g id="T1" serif:id="T"><path d="M5520.54,1402.68l227.35,0" style="fill:none;stroke:#dc712b;stroke-width:78.13px;"/><path d="M5604.33,1259.09l0,424.779c22.296,35.537 71.454,62.867 155.55,17.95" style="fill:none;stroke:#dc712b;stroke-width:78.13px;"/></g><path id="O" d="M5275.79,1408.66c183.979,1.6 184.121,314.091 0,317.087c-204.771,3.333 -211.2,-318.925 0,-317.087Z" style="fill:none;stroke:#dc712b;stroke-width:78.13px;"/><g id="I"><path d="M4964.71,1247.03l-11.966,0.184" style="fill:none;stroke:#dc712b;stroke-width:78.13px;"/><path d="M4958.71,1725.75l0,-335.037" style="fill:none;stroke:#dc712b;stroke-width:78.13px;"/></g><path id="S" d="M4793,1408.66c-17.983,-45.734 -99.679,-56.646 -161.538,0c-54.037,83.462 -12.679,122.075 137.609,173.5c28.408,31.516 35.404,71.466 0,113.675c-37.063,44.179 -147.925,35.8 -185.471,0" style="fill:none;stroke:#dc712b;stroke-width:78.13px;"/><g id="Y"><path d="M4172.08,1360.26l137.609,382.904" style="fill:none;stroke:#dc712b;stroke-width:78.13px;"/><path d="M4459.25,1360.26c0,0 -140.6,409.825 -137.608,406.833c2.991,-2.992 -53.2,85.075 -83.759,101.708" style="fill:none;stroke:#dc712b;stroke-width:78.13px;"/></g><g id="F"><path d="M4054.77,1235.16c-110.321,-6.612 -155.034,37.713 -143.588,125.642l0,364.95" style="fill:none;stroke:#dc712b;stroke-width:78.13px;"/><path d="M4036.82,1408.66l-209.396,0" style="fill:none;stroke:#dc712b;stroke-width:78.13px;"/></g><g id="T2" serif:id="T"><path d="M3464.82,1402.68l227.346,0" style="fill:none;stroke:#dc712b;stroke-width:78.13px;"/><path d="M3548.58,1259.09l0,424.779c22.3,35.537 71.458,62.867 155.554,17.95" style="fill:none;stroke:#dc712b;stroke-width:78.13px;"/></g><g id="T3" serif:id="T"><path d="M3116.53,1406.85l227.35,0" style="fill:none;stroke:#dc712b;stroke-width:78.13px;"/><path d="M3200.29,1263.26l0,424.78c22.296,35.537 71.454,62.866 155.554,17.95" style="fill:none;stroke:#dc712b;stroke-width:78.13px;"/></g><path id="E4" serif:id="E" d="M3005.21,1677.89c-32.966,28.412 -77.075,47.779 -131.62,47.862c-117.755,-6.046 -178.413,-61.446 -173.505,-173.5c0.992,-98.433 69.496,-155.817 149.571,-161.538c96.767,13.634 153.084,63.48 155.554,161.538l-305.125,0" style="fill:none;stroke:#dc712b;stroke-width:78.13px;"/><path d="M329.167,1507.54l238.65,0l140.075,-266.805l114.137,266.805l166.017,0l98.571,201.366l311.283,-946.408l269.775,1354.17l269.779,-875.93l93.383,266.805l160.83,0" style="fill:none;stroke:#dc712b;stroke-width:78.13px;"/><path d="M2233.33,1858.33c-0.316,14.834 -4.595,-573.254 0,-575l279.167,575c53.138,-204.35 53.346,-523.783 0,-733.333" style="fill:none;stroke:#dc712b;stroke-width:78.13px;"/><path d="M2479.17,954.167c-226.504,-448.405 -626.038,-673.175 -1087.5,-662.5c-645.621,14.933 -1198.86,523.004 -1195.83,1204.17c2.75,618.475 447.263,1172.14 1195.83,1220.83c459.683,-16.8 856.537,-241.371 1087.5,-658.334" style="fill:none;stroke:#41d8b7;stroke-width:78.13px;"/></svg>