<svg width="80" height="52" viewBox="0 0 80 52" fill="none" xmlns="http://www.w3.org/2000/svg">
<path fill-rule="evenodd" clip-rule="evenodd" d="M27.8647 1.68585C33.6951 2.46806 39.2379 3.78153 43.8253 7.45002C49.0823 11.654 54.4311 16.6519 54.9512 23.3467C55.4983 30.3882 51.365 36.7693 46.5023 41.9096C41.4637 47.236 35.2022 52.3609 27.8647 51.98C20.7313 51.6098 16.0257 45.1977 11.0733 40.0708C6.26805 35.0962 0.961946 30.2086 0.206102 23.3467C-0.624704 15.8043 0.946303 7.19081 6.93494 2.50081C12.6405 -1.96753 20.6715 0.720815 27.8647 1.68585Z" fill="#83E09F" fill-opacity="0.79"/>
<path d="M14.1114 12.8933V13.4424L14.6446 13.5732C17.7175 14.3271 19.3686 16.4924 19.7216 18.9667H17.2145C17.0712 18.0047 16.7031 17.1266 15.9889 16.4563C15.115 15.636 13.8362 15.2333 12.1591 15.2333C10.5695 15.2333 9.22017 15.5915 8.24729 16.2796C7.25465 16.9817 6.68507 18.0108 6.68507 19.2222C6.68507 19.7373 6.7845 20.2353 7.02758 20.7058C7.26964 21.1742 7.63498 21.5783 8.11434 21.935C9.05232 22.6328 10.489 23.1929 12.5126 23.7217C14.5067 24.2428 16.4686 24.909 17.9274 26.0136C19.3467 27.0884 20.3 28.5833 20.3 30.8667C20.3 32.4929 19.6968 33.7213 18.7215 34.6301C17.7295 35.5544 16.3176 36.1778 14.6802 36.4902L14.1114 36.5987V37.1778V40.3H10.2069V37.1422V36.5766L9.65382 36.4578C6.67931 35.8192 4.26572 34.0496 3.77785 31.0333H6.28874C6.49133 31.9872 6.96001 32.8649 7.79391 33.533C8.79725 34.3368 10.2416 34.7667 12.1591 34.7667C14.2241 34.7667 15.6088 34.2493 16.4829 33.4531C17.3594 32.6547 17.6332 31.657 17.6332 30.8844C17.6332 29.9081 17.3612 28.9036 16.4194 28.0135C15.5157 27.1593 14.0503 26.4643 11.793 25.9196C9.36328 25.3329 7.40377 24.5542 6.06185 23.4764C4.75289 22.4252 4.01827 21.0823 4.01827 19.2578C4.01827 16.2923 6.39174 14.2345 9.65576 13.524L10.2069 13.404V12.84V9.7H14.1114V12.8933Z" stroke="#253A90" stroke-width="1.4"/>
<path d="M50.7833 10.2569L50.7835 10.2568C51.8973 9.91441 53.102 9.91435 54.2169 10.2569L78.1883 17.6216C79.2705 17.9544 79.2706 19.2958 78.1884 19.6286C78.1884 19.6286 78.1883 19.6286 78.1883 19.6287L54.2162 26.9934C52.7246 27.4515 51.4484 27.1977 50.7824 26.9934C50.7823 26.9934 50.7822 26.9933 50.7821 26.9933L33.9756 21.8295L33.5137 21.6875L33.1154 21.9613C31.814 22.8558 30.9866 24.2789 30.9051 25.8904L30.8751 26.484L31.3821 26.7941C31.9197 27.1228 32.2496 27.6537 32.2496 28.2501C32.2496 28.8007 31.9637 29.2957 31.4801 29.6386L30.9382 30.0228L31.0823 30.6713L33.2763 40.5437C33.3283 40.7778 33.1503 41 32.9101 41H28.0882C27.8493 41 27.6708 40.7783 27.7229 40.5438L29.9169 30.6713L30.061 30.0228L29.5191 29.6386C29.0355 29.2957 28.7496 28.8007 28.7496 28.2501C28.7496 27.6328 29.0983 27.0859 29.6571 26.7656L30.1387 26.4895L30.1591 25.9349C30.2064 24.6528 30.6825 23.4747 31.4739 22.4965L32.4044 21.3462L30.9901 20.9116L26.8109 19.6277L26.8108 19.6277C25.7297 19.2957 25.7297 17.9538 26.8108 17.6217L26.8109 17.6217L50.7833 10.2569ZM55.6113 31.534L66.9365 28.0544L67.9982 36.55C67.9787 36.8692 67.7686 37.3162 67.0841 37.8556C66.3744 38.4149 65.2855 38.9623 63.8508 39.4405C60.9918 40.3935 56.9785 41 52.4997 41C48.0208 41 44.0075 40.3935 41.1485 39.4405C39.7138 38.9623 38.6249 38.4149 37.9152 37.8556C37.2308 37.3162 37.0207 36.8692 37.0012 36.55L38.0628 28.0552L49.387 31.534C50.5965 31.9058 52.9027 32.3657 55.6111 31.5341L55.3176 30.5781L55.6113 31.534Z" stroke="#253A90" stroke-width="2"/>
</svg>
