<svg width="50" height="52" viewBox="0 0 50 52" fill="none" xmlns="http://www.w3.org/2000/svg">
<path fill-rule="evenodd" clip-rule="evenodd" d="M27.2399 0.000351959C34.2929 -0.0349532 41.2816 2.58522 45.636 8.14518C49.9527 13.6569 51.0269 21.1145 49.0363 27.8311C47.1887 34.065 41.7227 37.9959 35.9237 40.9154C29.9586 43.9185 23.2435 46.568 17.1225 43.8982C10.7843 41.1337 7.28852 34.5141 5.75974 27.7587C4.23402 21.0169 4.84534 13.7912 9.07276 8.3282C13.366 2.78012 20.2338 0.0354219 27.2399 0.000351959Z" fill="#01B6A9" fill-opacity="0.63"/>
<path d="M30.3184 39.7981C30.7594 39.3594 31.1095 38.838 31.3484 38.2637C31.5873 37.6894 31.7104 37.0736 31.7106 36.4516V36.4515C31.7107 35.5849 31.3666 34.7538 30.754 34.141L30.754 34.1409L29.5119 32.8989L29.5116 32.8986C28.8728 32.2608 28.0082 31.9023 27.1052 31.9023H21.1901C21.0848 31.8235 20.9416 31.6791 20.7576 31.4529C20.5955 31.2536 20.4319 31.0302 20.2574 30.792C20.1859 30.6943 20.1126 30.5942 20.0367 30.4922C19.7866 30.1557 19.5115 29.802 19.2275 29.5309C18.9609 29.2764 18.59 28.9991 18.1461 28.9991C17.2693 28.9991 16.4042 28.7949 15.62 28.4024L15.6198 28.4023L14.615 27.8999L30.3184 39.7981ZM30.3184 39.7981C29.9644 40.1502 29.5941 40.5187 29.2938 40.82C29.0848 41.0297 28.9376 41.288 28.863 41.5675C28.8313 41.6863 28.8 41.8104 28.7678 41.9378C28.6696 42.3262 28.5635 42.7459 28.4159 43.1433L26.8382 47.3936L26.7431 47.6499L26.476 47.7082C25.1955 47.9874 23.8678 48.1452 22.5 48.1452H22V47.6452V45.1611V45.1278L22.0044 45.0947C22.0637 44.6523 21.929 43.9284 21.5811 43.1131C21.2394 42.3126 20.7211 41.4927 20.0933 40.8649C19.4551 40.2267 19.0968 39.361 19.0968 38.4583V35.5541C19.0968 34.6788 18.6257 33.8763 17.8616 33.4542L17.8614 33.454C16.5583 32.7331 14.7111 31.7292 13.4502 31.0943L30.3184 39.7981ZM10.3966 28.9807L10.396 28.9802C9.74677 28.3942 9.17033 27.7322 8.67908 27.0086C7.82726 25.7581 6.44039 23.7023 5.53983 22.3673L5.38411 22.1365L5.49835 21.8826C7.40633 17.6416 10.8446 14.2356 15.1186 12.3848L15.3325 12.2922L15.5409 12.3965L17.7192 13.4861C17.7192 13.4861 17.7192 13.4861 17.7192 13.4861C18.3524 13.8026 19.0968 13.3426 19.0968 12.635V11.6098V11.184L19.5171 11.1162C20.2618 10.9959 21.0198 10.9195 21.7908 10.8906L22.0089 10.8824L22.1631 11.0367L24.7307 13.6042C25.493 14.3665 25.493 15.6021 24.7307 16.3644L24.7303 16.3648L24.3052 16.789L24.3048 16.7894L23.3671 17.7271C23.2793 17.8149 23.2793 17.9583 23.3671 18.0461L23.7926 18.4716C24.2709 18.95 24.2709 19.7265 23.7926 20.2049L23.0668 20.9307L23.0664 20.931C22.8364 21.1606 22.5247 21.2895 22.1997 21.2894C22.1996 21.2894 22.1996 21.2894 22.1995 21.2894H21.3841C21.3256 21.2894 21.2693 21.3121 21.2266 21.3537L21.2265 21.3538L20.3266 22.2291C20.2923 22.2626 20.2694 22.3061 20.2614 22.3535C20.2533 22.4007 20.2605 22.4493 20.2819 22.4922C20.2819 22.4923 20.2819 22.4924 20.282 22.4924L21.6961 25.3217C21.6961 25.3217 21.6961 25.3217 21.6961 25.3217C22.1035 26.1366 21.5111 27.0959 20.6002 27.0959H20.0885C19.7924 27.0959 19.5073 26.9885 19.2852 26.7955C19.2852 26.7955 19.2852 26.7955 19.2851 26.7955L18.4435 26.0645L10.3966 28.9807ZM10.3966 28.9807L10.4688 29.0458M10.3966 28.9807L10.4688 29.0458M14.2912 27.3769V27.377C14.2912 27.5978 14.4158 27.7998 14.6145 27.8997L14.2912 27.3769ZM14.2912 27.3769C14.2912 27.2542 14.3297 27.1347 14.4014 27.0352C14.4731 26.9357 14.5743 26.8613 14.6906 26.8225L17.5182 25.88C17.6751 25.8278 17.843 25.8174 18.0053 25.8497C18.1674 25.882 18.3184 25.956 18.4433 26.0643L14.2912 27.3769ZM37.7115 31.6408L37.7112 31.6408C37.0659 31.4792 36.5024 31.0834 36.1329 30.5286C36.1328 30.5285 36.1328 30.5284 36.1327 30.5284L34.5018 28.082L37.7115 31.6408ZM37.7115 31.6408L40.3588 32.3022L40.9041 32.4384L40.9759 31.881C41.0756 31.1075 41.1452 30.3147 41.1452 29.5C41.1452 26.5029 40.4174 23.6793 39.1577 21.1711L38.9337 20.725L38.4873 20.9482L37.3106 21.5366C37.3105 21.5366 37.3104 21.5367 37.3102 21.5368C36.8918 21.7449 36.5374 22.0598 36.2793 22.4458L36.279 22.4463M37.7115 31.6408L36.279 22.4463M36.279 22.4463L34.5018 25.1116C34.5018 25.1117 34.5017 25.1117 34.5016 25.1118C34.2082 25.5515 34.0516 26.0682 34.0516 26.5968C34.0516 27.1253 34.2082 27.6421 34.5016 28.0817L36.279 22.4463ZM10.4688 29.0458C11.3669 29.8554 12.3671 30.5489 13.4502 31.0943L10.4688 29.0458ZM0.5 29.5C0.5 17.3494 10.3494 7.5 22.5 7.5C34.6506 7.5 44.5 17.3494 44.5 29.5C44.5 41.6506 34.6506 51.5 22.5 51.5C10.3494 51.5 0.5 41.6506 0.5 29.5Z" stroke="#253A90"/>
</svg>
