<svg width="32" height="32" viewBox="0 0 32 32" fill="none" xmlns="http://www.w3.org/2000/svg">
<path d="M13.1846 7.81082C10.9393 8.28745 8.90311 9.31913 7.22329 10.7603L0.592198 1.2872C0.592177 1.28717 0.592157 1.28714 0.592137 1.28711C0.592115 1.28708 0.592094 1.28705 0.592073 1.28702C0.360019 0.954919 0.597428 0.5 1.00183 0.5H7.94872C8.20776 0.500003 8.46239 0.567099 8.6878 0.694752C8.9132 0.822405 9.1017 1.00626 9.23494 1.22841L9.23499 1.22851L13.1846 7.81082ZM22.765 1.22851L22.7651 1.22837C23.036 0.776592 23.5244 0.5 24.0513 0.5H30.9982C31.4026 0.5 31.6401 0.955082 31.4078 1.2872L24.7767 10.7598C23.0969 9.31908 21.0607 8.28745 18.8154 7.81082L22.765 1.22851ZM20.4654 25.3183L20.4653 25.3179L19.9492 22.3133L22.1313 20.187C22.8543 19.4831 22.4557 18.254 21.4572 18.1095L18.441 17.67L17.0928 14.9358L17.0922 14.9345C16.8686 14.484 16.4284 14.2575 15.9988 14.2575C15.5703 14.2575 15.1313 14.4823 14.9078 14.9358C14.9078 14.9358 14.9078 14.9358 14.9078 14.9358L13.5597 17.67L10.5434 18.1095C9.54504 18.254 9.14635 19.4829 9.86917 20.1869C9.86922 20.1869 9.86927 20.187 9.86932 20.187L12.0514 22.3133L11.5353 25.3179L11.5353 25.3182C11.3659 26.3077 12.407 27.0735 13.3018 26.6005C13.3022 26.6003 13.3025 26.6001 13.3028 26.6L16 25.1823L18.6988 26.6005C18.699 26.6006 18.6991 26.6007 18.6993 26.6007C19.5905 27.0698 20.6351 26.3113 20.4654 25.3183ZM5.49997 21C5.49997 15.2011 10.2011 10.5 16 10.5C21.7989 10.5 26.5 15.2011 26.5 21C26.5 26.7989 21.7989 31.5 16 31.5C10.2011 31.5 5.49997 26.7989 5.49997 21Z" stroke="#253A90"/>
</svg>
