<svg width="50" height="58" viewBox="0 0 50 58" fill="none" xmlns="http://www.w3.org/2000/svg">
<path d="M48.7941 45.0339L35.7136 23.9958V7.14293H36.6065C38.0908 7.14293 39.285 5.94872 39.285 4.46433V2.6786C39.285 1.19421 38.0908 0 36.6065 0H13.3919C11.9076 0 10.7133 1.19421 10.7133 2.6786V4.46433C10.7133 5.94872 11.9076 7.14293 13.3919 7.14293H14.2848V23.9958L1.20432 45.0339C-2.0658 50.2907 1.70656 57.1434 7.91198 57.1434H42.0864C48.303 57.1434 52.0642 50.2795 48.7941 45.0339ZM15.3897 35.7146L20.7692 27.0538C21.1822 26.4735 21.4166 25.7592 21.4166 25.0002V7.14293H28.5595V25.0002C28.5595 25.7703 28.805 26.4735 29.2068 27.0538L34.5863 35.7146H15.3897Z" fill="#83E09F"/>
</svg>
