<svg width="50" height="44" viewBox="0 0 50 44" fill="none" xmlns="http://www.w3.org/2000/svg">
<path d="M31.25 29.6875C31.25 30.5508 30.5508 31.25 29.6875 31.25H20.3125C19.4492 31.25 18.75 30.5508 18.75 29.6875V25H0V39.0625C0 41.5625 2.1875 43.75 4.6875 43.75H45.3125C47.8125 43.75 50 41.5625 50 39.0625V25H31.25V29.6875ZM45.3125 9.375H37.5V4.6875C37.5 2.1875 35.3125 0 32.8125 0H17.1875C14.6875 0 12.5 2.1875 12.5 4.6875V9.375H4.6875C2.1875 9.375 0 11.5625 0 14.0625V21.875H50V14.0625C50 11.5625 47.8125 9.375 45.3125 9.375ZM31.25 9.375H18.75V6.25H31.25V9.375Z" fill="#548CE4"/>
</svg>
