<svg width="50" height="44" viewBox="0 0 50 44" fill="none" xmlns="http://www.w3.org/2000/svg">
<path d="M37 9.375V9.875H37.5H45.3125C47.5364 9.875 49.5 11.8386 49.5 14.0625V21.375H0.5V14.0625C0.5 11.8386 2.46364 9.875 4.6875 9.875H12.5H13V9.375V4.6875C13 2.46364 14.9636 0.5 17.1875 0.5H32.8125C35.0364 0.5 37 2.46364 37 4.6875V9.375ZM31.25 9.875H31.75V9.375V6.25V5.75H31.25H18.75H18.25V6.25V9.375V9.875H18.75H31.25ZM29.6875 31.75C30.8269 31.75 31.75 30.8269 31.75 29.6875V25.5H49.5V39.0625C49.5 41.2864 47.5364 43.25 45.3125 43.25H4.6875C2.46364 43.25 0.5 41.2864 0.5 39.0625V25.5H18.25V29.6875C18.25 30.8269 19.1731 31.75 20.3125 31.75H29.6875Z" fill="white" stroke="#253A90"/>
</svg>
