<svg width="52" height="52" viewBox="0 0 52 52" fill="none" xmlns="http://www.w3.org/2000/svg">
<path fill-rule="evenodd" clip-rule="evenodd" d="M21.6646 0.016355C29.2069 -0.303495 35.9966 4.10548 40.7378 9.958C45.5176 15.8581 48.0519 23.3382 46.5852 30.7781C45.0627 38.5013 40.1289 45.1737 33.0906 48.7489C25.8496 52.4269 16.9709 53.4349 9.92367 49.4005C3.30977 45.6141 1.36271 37.4957 0.291 29.9715C-0.646344 23.3907 0.658919 16.9112 4.52443 11.4937C8.72069 5.61265 14.4285 0.32322 21.6646 0.016355Z" fill="#E07790"/>
<path d="M38.5 14.375V15.375H39.5H47.3125C49.2602 15.375 51 17.1148 51 19.0625V25.875H3V19.0625C3 17.1148 4.73978 15.375 6.6875 15.375H14.5H15.5V14.375V9.6875C15.5 7.73978 17.2398 6 19.1875 6H34.8125C36.7602 6 38.5 7.73978 38.5 9.6875V14.375ZM33.25 15.375H34.25V14.375V11.25V10.25H33.25H20.75H19.75V11.25V14.375V15.375H20.75H33.25ZM31.6875 37.25C33.1031 37.25 34.25 36.1031 34.25 34.6875V31H51V44.0625C51 46.0102 49.2602 47.75 47.3125 47.75H6.6875C4.73978 47.75 3 46.0102 3 44.0625V31H19.75V34.6875C19.75 36.1031 20.8969 37.25 22.3125 37.25H31.6875Z" stroke="#14126E" stroke-width="2"/>
</svg>
