<svg width="55" height="52" viewBox="0 0 55 52" fill="none" xmlns="http://www.w3.org/2000/svg">
<path fill-rule="evenodd" clip-rule="evenodd" d="M27.8647 1.68585C33.6951 2.46806 39.2379 3.78153 43.8253 7.45002C49.0823 11.654 54.4311 16.6519 54.9512 23.3467C55.4983 30.3882 51.365 36.7693 46.5023 41.9096C41.4637 47.236 35.2022 52.3609 27.8647 51.98C20.7313 51.6098 16.0257 45.1977 11.0733 40.0708C6.26805 35.0962 0.961946 30.2086 0.206102 23.3467C-0.624704 15.8043 0.946303 7.19081 6.93494 2.50081C12.6405 -1.96753 20.6715 0.720815 27.8647 1.68585Z" fill="#83E09F" fill-opacity="0.79"/>
<path d="M39.5 13.375V14.375H40.5H48.3125C50.2602 14.375 52 16.1148 52 18.0625V24.875H4V18.0625C4 16.1148 5.73978 14.375 7.6875 14.375H15.5H16.5V13.375V8.6875C16.5 6.73978 18.2398 5 20.1875 5H35.8125C37.7602 5 39.5 6.73978 39.5 8.6875V13.375ZM34.25 14.375H35.25V13.375V10.25V9.25H34.25H21.75H20.75V10.25V13.375V14.375H21.75H34.25ZM32.6875 36.25C34.1031 36.25 35.25 35.1031 35.25 33.6875V30H52V43.0625C52 45.0102 50.2602 46.75 48.3125 46.75H7.6875C5.73978 46.75 4 45.0102 4 43.0625V30H20.75V33.6875C20.75 35.1031 21.8969 36.25 23.3125 36.25H32.6875Z" stroke="#14126E" stroke-width="2"/>
</svg>
