<?xml version="1.0" encoding="UTF-8" standalone="no"?><!DOCTYPE svg PUBLIC "-//W3C//DTD SVG 1.1//EN" "http://www.w3.org/Graphics/SVG/1.1/DTD/svg11.dtd"><svg width="100%" height="100%" viewBox="0 0 2763 2938" version="1.1" xmlns="http://www.w3.org/2000/svg" xmlns:xlink="http://www.w3.org/1999/xlink" xml:space="preserve" xmlns:serif="http://www.serif.com/" style="fill-rule:evenodd;clip-rule:evenodd;stroke-linecap:round;stroke-linejoin:round;stroke-miterlimit:1.5;"><path d="M329.167,1507.54l238.65,0l140.075,-266.805l114.137,266.805l166.017,0l98.571,201.366l311.283,-946.408l269.775,1354.17l269.779,-875.93l93.383,266.805l160.83,0" style="fill:none;stroke:#dc712b;stroke-width:78.13px;"/><path d="M2233.33,1858.33c-0.316,14.834 -4.595,-573.254 0,-575l279.167,575c53.138,-204.35 53.346,-523.783 0,-733.333" style="fill:none;stroke:#dc712b;stroke-width:78.13px;"/><path d="M2479.17,954.167c-226.504,-448.405 -626.038,-673.175 -1087.5,-662.5c-645.621,14.933 -1198.86,523.004 -1195.83,1204.17c2.75,618.475 447.263,1172.14 1195.83,1220.83c459.683,-16.8 856.537,-241.371 1087.5,-658.334" style="fill:none;stroke:#41d8b7;stroke-width:78.13px;"/></svg>