<?xml version="1.0" encoding="UTF-8" standalone="no"?>
<!-- Created with Inkscape (http://www.inkscape.org/) -->

<svg
   xmlns:dc="http://purl.org/dc/elements/1.1/"
   xmlns:cc="http://creativecommons.org/ns#"
   xmlns:rdf="http://www.w3.org/1999/02/22-rdf-syntax-ns#"
   xmlns:svg="http://www.w3.org/2000/svg"
   xmlns="http://www.w3.org/2000/svg"
   xmlns:sodipodi="http://sodipodi.sourceforge.net/DTD/sodipodi-0.dtd"
   xmlns:inkscape="http://www.inkscape.org/namespaces/inkscape"
   version="1.1"
   id="svg176"
   width="255.61282"
   height="257.69827"
   viewBox="0 0 255.61282 257.69827"
   sodipodi:docname="face.svg"
   inkscape:version="0.92.3 (2405546, 2018-03-11)">
  <metadata
     id="metadata182">
    <rdf:RDF>
      <cc:Work
         rdf:about="">
        <dc:format>image/svg+xml</dc:format>
        <dc:type
           rdf:resource="http://purl.org/dc/dcmitype/StillImage" />
        <dc:title />
      </cc:Work>
    </rdf:RDF>
  </metadata>
  <defs
     id="defs180" />
  <sodipodi:namedview
     pagecolor="#ffffff"
     bordercolor="#666666"
     borderopacity="1"
     objecttolerance="10"
     gridtolerance="10"
     guidetolerance="10"
     inkscape:pageopacity="0"
     inkscape:pageshadow="2"
     inkscape:window-width="1920"
     inkscape:window-height="1017"
     id="namedview178"
     showgrid="false"
     inkscape:zoom="1.2470588"
     inkscape:cx="19.093941"
     inkscape:cy="142.99179"
     inkscape:window-x="-8"
     inkscape:window-y="-8"
     inkscape:window-maximized="1"
     inkscape:current-layer="svg176" />
  <g
     id="g237"
     transform="translate(-146.42172,-101.55122)">
    <g
       id="g225">
      <g
         id="g217">
        <path
           style="fill:none;stroke:#000000;stroke-width:1px;stroke-linecap:butt;stroke-linejoin:miter;stroke-opacity:1"
           d="m 153.53105,356.82785 c 0.73326,-1.93208 0.17229,-6.13978 -1.13404,-7.65476 -0.79583,-2.7953 -2.98278,-4.19947 -2.26808,-8.5053 -0.40022,-5.08097 -0.0189,-10.94344 -0.85053,-15.59304 -0.84144,-3.56121 -1.73121,-7.44925 -1.98457,-11.34039 -0.45611,-2.81085 -0.7857,-7.73295 0.85053,-9.63933 1.06746,-2.77423 0.68654,-6.68161 2.26808,-9.07232 0.31766,-2.80095 2.51133,-3.72588 3.11861,-6.23721 0.92969,-2.06622 2.08647,-4.24609 2.83509,-6.52073 0.63025,-1.1905 1.70535,-2.11271 3.11861,-3.1186 0.72609,-2.0615 3.43459,-2.61414 4.25265,-4.53616 1.09299,-1.3363 1.56736,-1.48229 2.8351,-2.8351 2.51537,-1.03853 5.01895,-1.64425 7.37125,-3.11861 2.62494,-1.24748 4.48267,-3.27627 7.65477,-3.96913 2.10785,-1.41887 6.51168,-2.44189 8.22178,-3.96914 2.31032,-0.43028 3.56692,-1.91427 5.38669,-2.8351 1.41188,-1.34821 3.4102,-2.36866 4.53615,-3.68563 3.08121,-0.50753 5.36732,-2.34779 8.5053,-2.83509 1.88897,-1.46485 4.83106,-1.09839 5.38668,-4.25265 0.74874,-1.914 1.26521,-4.73755 2.8351,-5.6702 0.8297,-2.8237 1.33426,-5.47196 1.98457,-8.22178 0.52896,-3.44017 1.06825,-6.87002 1.70106,-10.20635 1.52452,-2.82165 0.75392,-7.12751 -0.56702,-9.63934 -0.54177,-4.10328 -1.80646,-7.62427 -2.55159,-11.34039 -0.28363,-3.03083 -3.33711,-2.77432 -5.10318,-3.96914 -3.8805,-0.37197 -3.74609,-3.61568 -4.81966,-6.80423 0.37562,-4.38732 -1.52003,-6.70553 -2.55159,-9.92284 -0.40068,-3.77767 -0.82148,-9.68562 1.13404,-12.19092 1.19419,-2.52065 1.27526,-5.48375 1.13404,-9.07232 -0.40679,-2.9534 -1.34152,-5.37887 -1.70106,-8.37953 -0.53694,-5.4819 1.21006,-8.81768 1.98457,-13.16721 0.93618,-2.35901 1.13477,-5.38816 3.71711,-6.40211 -0.86121,-1.56122 0.32657,-4.30034 1.10255,-6.35583 0.50634,-2.67839 2.18865,-4.02836 2.8351,-6.80424 0.6404,-1.81478 3.3538,-1.8868 4.82092,-3.48286 1.12604,-0.53947 2.27104,-2.02226 3.11736,-3.32138 1.3879,-1.6362 4.13474,-1.91346 5.9537,-3.1186 2.5562,-0.94042 5.82007,-1.17317 8.7888,-1.70106 2.80928,-0.96766 6.55655,-1.51574 9.92285,-1.98457 3.10522,-0.45051 6.5165,-1.03984 9.67132,-1.41755 5.50927,-0.46873 12.89356,-0.47859 18.39615,0 1.47582,0.79721 8.89984,-2.8804 9.78428,-1.61975 0.95721,0.93503 -1.88014,5.64113 -0.63586,7.00243 2.18645,1.36449 2.67519,-0.36782 5.14745,0.98326 1.16067,1.34923 0.2183,5.70446 1.29717,6.95902 2.04343,1.13471 4.07083,2.90908 4.6779,3.61475 0.75372,1.77446 -3.02287,5.00026 -2.97685,8.29266 -1.65594,1.58021 0.68879,7.03434 1.13404,7.93828 0.75041,2.4627 0.72122,5.705 1.41755,8.22178 1.19006,2.11755 1.66108,4.95416 2.55159,7.37126 -0.0868,3.24339 -0.59999,6.34082 1.13404,8.22178 0.12686,3.33997 0.15446,6.58069 -1.41755,8.22179 -0.81349,4.16151 -1.47705,7.56745 -1.13404,12.47443 0.44298,3.80966 1.39221,7.11309 1.13404,11.6239 -0.4539,2.39695 -0.43834,7.00061 -1.13404,8.22178 -1.78767,1.51428 -1.91305,3.82298 -3.40212,5.6702 -1.35074,2.42939 -1.08335,6.47691 -2.26807,9.07231 -0.33041,2.26313 -1.66823,3.80488 -2.55159,5.6702 -1.46753,1.93459 -2.89242,3.91181 -3.11861,7.08774 -1.10746,1.44413 -2.34488,2.7583 -3.96914,3.68563 -0.21811,1.4146 -1.83769,3.59381 -1.70106,6.52073 -0.7083,4.89865 -1.41967,10.2799 -1.41754,15.87654 -1.06387,3.38833 -0.80107,9.09102 0.28351,11.90741 1.88347,1.02495 2.82482,2.95265 5.67019,3.96914 1.45248,0.58241 1.81564,2.47316 3.68563,3.11861 1.28135,1.29003 3.31785,1.50232 4.53616,3.11861 2.99487,1.08866 4.86962,1.69813 8.97854,1.41755 h 16.41158 c 2.95105,0.38854 5.05335,1.40665 7.49701,2.55158 1.68938,1.21516 3.86142,1.45198 5.38669,3.11861 0.96437,1.30371 2.75772,1.77845 3.11861,3.68563 1.59499,0.67034 2.4537,4.14902 4.53615,3.40212 2.36661,0.51194 4.97417,0.084 5.38669,2.26808 1.92647,0.68101 2.32451,2.77311 3.96913,3.96913 1.0994,1.45219 1.78309,3.32009 3.40212,4.25265 1.24694,1.96015 3.29092,2.80418 4.25265,4.81967 0.96355,1.51632 2.51137,2.90363 4.53616,3.68562 0.89469,1.42508 3.0324,3.09496 5.10317,3.68563 1.04843,1.31215 2.35176,3.2444 1.98457,5.10318 1.5707,1.75861 0.29738,6.03152 3.68563,6.23721 2.69374,0.61307 1.79004,5.18069 3.40212,6.80424 0.59962,2.27215 3.54623,1.84181 4.81966,3.11861 1.29872,1.3994 2.68581,3.57723 3.96914,4.81966 1.15555,1.32372 2.51264,3.27448 3.71602,4.69383 1.66397,1.9793 2.89915,4.09268 6.49033,4.37849 1.57369,0.91383 2.76013,1.92862 3.96914,3.1186 1.43717,1.53668 4.16375,2.5062 4.14114,3.97525 1.89215,2.64383 -1.23511,3.69397 -1.02253,0.56091 -23.37071,0.20222 -46.45033,-0.29832 -69.74341,-0.28351 -7.10456,1.46028 -16.0817,0.64213 -24.19432,0.85053 -13.74033,0.11207 -27.34069,-0.11377 -40.72943,-0.85053 -5.93447,-0.68076 -13.14825,-0.0822 -19.56217,-0.28351 -9.02499,0.98391 -19.60254,0.41525 -29.45968,0.56702 -9.58429,0.34218 -18.49117,-0.95107 -28.09281,-0.56702 -10.80881,-1.00315 -21.27174,-1.18143 -32.60363,-1.13404 -1.34431,-0.0458 -1.49183,0.55422 -1.98456,1.70106 z"
           id="path188"
           inkscape:connector-curvature="0"
           sodipodi:nodetypes="cccccccccccccccccccccccccccccccccccccccccccccccccccccccccccccccccccccccccccccccccccccccccccccccc" />
        <path
           style="fill:none;stroke:#000000;stroke-width:1px;stroke-linecap:butt;stroke-linejoin:miter;stroke-opacity:1"
           d="m 206.67864,165.64148 c 0.28646,1.25966 1.95356,-0.0948 2.55159,1.13404 1.264,0.53156 1.82651,1.76461 3.11861,2.26807 0.36607,1.35687 1.32931,2.06267 1.70105,3.40212 0.74707,0.67528 1.11647,1.94672 1.3644,2.97686 1.11889,0.73456 1.5103,2.00695 2.32123,2.97685 0.78677,1.13073 1.37263,1.22798 2.55159,2.26808 1.15873,0.1996 3.80212,0.81157 4.25265,-0.28351 1.27752,-0.30297 0.94705,-1.91804 1.70106,-3.11861 0.4314,-0.93407 0.25357,-2.49418 0.28351,-3.83287 0.0745,-1.51116 -0.0441,-2.83294 -0.28351,-4.0295 0,-2.10438 0,-4.20875 0,-6.31312 0.82153,-1.40499 0.61504,-3.60204 1.98456,-4.25265 0.34734,-1.53027 1.25854,-2.50854 1.41755,-4.25265 0.0851,-1.52596 0.42326,-2.80101 0.28351,-4.5517 -0.0725,-1.96206 0.40571,-3.82863 -1.13404,-5.08763 -1.0979,-0.64047 -1.75129,-1.85328 -2.26807,-3.40212 -0.59634,-1.01538 -0.61862,-2.60486 -0.56702,-4.26819 -0.0582,-1.37818 0.006,-2.78609 0.24364,-3.78083 0.50689,-1.07415 0.72164,-2.22094 1.17391,-3.29137 0.95675,-0.96184 3.3826,-0.90671 5.38668,-1.13404 1.68501,-0.43178 2.70907,-1.39779 4.81967,-1.41755 1.52264,-0.66953 3.47241,-0.25196 4.80639,-0.86896 1.41523,-0.50731 2.77995,-0.63168 4.56498,-0.54858 5.28699,1e-4 10.57406,-1.4e-4 15.861,0 1.19976,1.39227 3.96109,0.97254 6.11588,1.70037 1.36887,0.56322 2.30421,1.55699 4.09047,1.70174 1.56877,0.0567 3.02212,-0.002 4.25265,-0.28351 1.02856,-0.81916 2.82852,-1.17299 4.64774,-1.13404 1.96983,-0.11995 3.38184,-0.75576 5.11094,-1.13742 1.659,-0.13767 3.21728,-0.39162 5.13107,-0.28013 0.51794,0 1.03588,0 1.55382,0"
           id="path213"
           inkscape:connector-curvature="0" />
      </g>
      <path
         style="fill:none;stroke:#000000;stroke-width:1px;stroke-linecap:butt;stroke-linejoin:miter;stroke-opacity:1"
         d="m 232.76154,228.01363 c 1.62995,0.18274 2.98351,1.1411 4.48284,1.18592 1.41867,0.098 2.73789,1.67881 3.81909,2.04398 1.03063,0.92227 2.15145,1.31092 3.5784,1.98777 1.30608,0.70083 2.9833,1.27162 4.00763,2.32898 1.64112,0.40546 2.77657,1.88975 4.50153,2.09227 1.90508,0.17281 3.72698,0.74104 5.65975,0.8881 3.12615,-0.0862 6.26025,-0.0127 9.38949,-0.0372 1.14386,-0.69863 3.10739,-0.59481 4.11848,-1.7882 1.52991,-0.43008 3.1084,-0.68141 4.50068,-1.49135 1.44301,-0.94457 2.4548,-2.20969 4.25184,-2.55743 l 0.17045,-0.11672"
         id="path219"
         inkscape:connector-curvature="0" />
    </g>
    <path
       inkscape:connector-curvature="0"
       id="path229"
       d="m 213.0681,248.52711 c -0.46217,2.31762 0.91864,0.40309 1.2653,0.74976 0.0668,0.0668 -0.0668,0.21668 0,0.28351 0.0682,0.0682 1.06582,-0.0682 1.13404,0 0.0668,0.0668 -0.0668,0.21668 0,0.28351 0.0668,0.0668 0.21669,-0.0668 0.28351,0 0.0668,0.0668 -0.0668,0.21668 0,0.28351 0.13365,0.13364 0.43338,-0.13365 0.56702,0 0.0668,0.0668 -0.0668,0.21668 0,0.2835 0.0668,0.0668 0.21669,-0.0668 0.28351,0 0.0668,0.0668 -0.0668,0.21669 0,0.28351 0.13365,0.13365 0.43337,-0.13364 0.56702,0 0.0668,0.0668 -0.0668,0.21669 0,0.28351 0.0668,0.0668 0.19899,-0.0423 0.28351,0 0.11954,0.0598 0.16397,0.22375 0.28351,0.28351 0.0845,0.0423 0.21669,-0.0668 0.28351,0 0.0668,0.0668 -0.0668,0.21669 0,0.28351 0.14176,0.14176 0.70878,-0.14175 0.85053,0 0.0668,0.0668 -0.0668,0.21669 0,0.28351 0.14176,0.14176 0.70878,-0.14175 0.85053,0 0.0668,0.0668 -0.0668,0.21669 0,0.28351 0.13365,0.13365 0.43337,-0.13364 0.56702,0 0.0668,0.0668 -0.0668,0.21669 0,0.28351 0.14176,0.14176 0.70877,-0.14175 0.85053,0 0.37801,0.37802 -0.47252,0.28351 0.28351,0.28351 0.0945,0 0.18901,0 0.28351,0 0.0945,0 0.21669,-0.0668 0.28351,0 0.0668,0.0668 -0.0668,0.21669 0,0.28351 0.13365,0.13365 0.43337,-0.13364 0.56702,0 0.0668,0.0668 -0.0668,0.21669 0,0.28351 0.0668,0.0668 0.19898,-0.0423 0.28351,0 0.11954,0.0598 0.16397,0.22374 0.28351,0.28351 0.11241,0.0562 0.79257,-0.058 0.85053,0 0.0668,0.0668 -0.0668,0.21669 0,0.28351 0.058,0.058 0.73812,-0.0562 0.85053,0 0.11954,0.0598 0.16397,0.22374 0.28351,0.28351 0.10252,0.0513 1.22035,0 1.41755,0 1.60655,0 3.21311,0 4.81966,0 0.0688,0 0.84141,-0.009 0.85053,0 0.0668,0.0668 -0.0668,0.21669 0,0.28351 0.13365,0.13365 0.43337,-0.13365 0.56702,0 0.0668,0.0668 -0.0668,0.21669 0,0.28351 0.14176,0.14176 0.70878,-0.14175 0.85053,0 0.0668,0.0668 -0.0668,0.21669 0,0.28351 0.14176,0.14176 0.70878,-0.14175 0.85053,0 0.0668,0.0668 -0.0668,0.21669 0,0.28351 0.058,0.058 0.73812,-0.0562 0.85053,0 0.23908,0.11954 0.32794,0.44748 0.56702,0.56702 0.0845,0.0423 0.21668,-0.0668 0.28351,0 0.0668,0.0668 -0.0668,0.21669 0,0.28351 0.0668,0.0668 0.21668,-0.0668 0.28351,0 0.0668,0.0668 -0.0668,0.21669 0,0.28351 0.58659,0.58659 -0.0229,-0.89639 0.56702,0.28351 0.0423,0.0845 -0.0668,0.21669 0,0.28351 0.0668,0.0668 0.19898,-0.0423 0.28351,0 0.11954,0.0598 0.16397,0.22374 0.28351,0.28351 0.0845,0.0423 0.21668,-0.0668 0.28351,0 0.0668,0.0668 -0.0668,0.21669 0,0.28351 0.0668,0.0668 0.21668,-0.0668 0.28351,0 0.0668,0.0668 -0.0668,0.21669 0,0.28351 0.0668,0.0668 0.21668,-0.0668 0.28351,0 0.0668,0.0668 -0.0668,0.21669 0,0.28351 0.0668,0.0668 0.21668,-0.0668 0.28351,0 0.0668,0.0668 -0.0668,0.21669 0,0.28351 0.0668,0.0668 0.21668,-0.0668 0.28351,0 0.0668,0.0668 -0.0668,0.21669 0,0.28351 0.0668,0.0668 0.21668,-0.0668 0.28351,0 0.0668,0.0668 -0.0668,0.21668 0,0.28351 0.0668,0.0668 0.21668,-0.0668 0.28351,0 0.0668,0.0668 -0.0668,0.21668 0,0.28351 0.0668,0.0668 0.21668,-0.0668 0.28351,0 0.0668,0.0668 -0.0668,0.21668 0,0.28351 0.0668,0.0668 0.21668,-0.0668 0.28351,0 0.0668,0.0668 -0.0668,0.21668 0,0.28351 0.14175,0.14175 0.70877,-0.14176 0.85053,0 0.0668,0.0668 -0.0668,0.21668 0,0.28351 0.0668,0.0668 0.21668,-0.0668 0.28351,0 0.0668,0.0668 -0.0668,0.21668 0,0.28351 0.13364,0.13365 0.43337,-0.13365 0.56701,0 0.0668,0.0668 -0.0668,0.21668 0,0.28351 0.13365,0.13365 0.43338,-0.13365 0.56702,0 0.0668,0.0668 -0.0668,0.21668 0,0.28351 0.0668,0.0668 0.18901,0 0.28351,0 0.0945,0 0.18901,0 0.28351,0 0.75603,0 1.51206,0 2.26808,0 0.18901,0 0.37802,0 0.56702,0 0.0945,0 0.28351,-0.0945 0.28351,0 0,0.0945 -0.28351,-0.0945 -0.28351,0 0,0.58995 0.39759,0.11407 0.56702,0.28351 0.0668,0.0668 -0.0668,0.21668 0,0.28351 0.0668,0.0668 0.21669,-0.0668 0.28351,0 0.0668,0.0668 -0.0668,0.21668 0,0.28351 0.0668,0.0668 0.21669,-0.0668 0.28351,0 0.0668,0.0668 -0.0668,0.21668 0,0.28351 0.0668,0.0668 0.19898,-0.0423 0.28351,0 0.11954,0.0598 0.16397,0.22374 0.28351,0.28351 0.0845,0.0423 0.21669,-0.0668 0.28351,0 0.0668,0.0668 -0.0668,0.21668 0,0.28351 0.0668,0.0668 0.21669,-0.0668 0.28351,0 0.0668,0.0668 -0.0668,0.21668 0,0.28351 0.0668,0.0668 0.21669,-0.0668 0.28351,0 0.0668,0.0668 -0.0668,0.21668 0,0.28351 0.13365,0.13364 0.43337,-0.13365 0.56702,0 0.0668,0.0668 -0.0668,0.21668 0,0.28351 0.18898,0.18897 0.37804,-0.18898 0.56702,0 0.0668,0.0668 -0.0668,0.21668 0,0.28351 0.13365,0.13364 0.43337,-0.13365 0.56702,0 0.0668,0.0668 -0.0668,0.21668 0,0.28351 0.18898,0.18897 0.37804,-0.18898 0.56702,0 0.0668,0.0668 -0.0668,0.21668 0,0.2835 0.13365,0.13365 0.43337,-0.13364 0.56702,0 0.0668,0.0668 -0.0668,0.21669 0,0.28351 0.13365,0.13365 0.43337,-0.13364 0.56702,0 0.0668,0.0668 -0.0668,0.21669 0,0.28351 0.0668,0.0668 0.21668,-0.0668 0.28351,0 0.0668,0.0668 -0.0668,0.21669 0,0.28351 0.14175,0.14176 0.70877,-0.14175 0.85053,0 0.0668,0.0668 -0.0668,0.21669 0,0.28351 0.14175,0.14176 0.70877,-0.14175 0.85053,0 0.0668,0.0668 -0.0668,0.21669 0,0.28351 0.0114,0.0114 1.02992,0 1.13404,0 0.0945,0 0.189,0 0.2835,0 0.0945,0 0.21669,-0.0668 0.28351,0 0.0668,0.0668 -0.0668,0.21669 0,0.28351 0.14176,0.14176 0.70878,-0.14175 0.85053,0 0.0668,0.0668 -0.0668,0.21669 0,0.28351 0.0668,0.0668 0.18901,0 0.28351,0 0.56702,0 1.13404,0 1.70106,0 0.10412,0 1.12263,-0.0114 1.13404,0 0.0668,0.0668 -0.0668,0.21669 0,0.28351 0.0129,0.0129 1.28388,0 1.41755,0 0.14825,0 1.05949,-0.0373 1.13404,0 0.11954,0.0598 0.16397,0.22374 0.28351,0.28351 0.1538,0.0769 1.05646,-0.0776 1.13404,0 0.0668,0.0668 -0.0668,0.21669 0,0.28351 0.0668,0.0668 0.18901,0 0.28351,0 0.47252,0 0.94503,0 1.41755,0 0.0945,0 0.21668,-0.0668 0.28351,0 0.0668,0.0668 -0.0668,0.21669 0,0.28351 0.0668,0.0668 0.21668,-0.0668 0.28351,0 0.0668,0.0668 -0.0668,0.21669 0,0.28351 0.0878,0.0878 1.32976,-0.0878 1.41755,0 0.0668,0.0668 -0.0668,0.21669 0,0.28351 0.009,0.009 0.78177,0 0.85053,0 0.0687,0 0.84141,-0.009 0.85053,0 0.0668,0.0668 -0.0668,0.21669 0,0.28351 0.0668,0.0668 0.189,0 0.2835,0 0.20096,0 1.62776,-0.0367 1.70106,0 0.11954,0.0598 0.16398,0.22374 0.28351,0.28351 0.0845,0.0423 0.21669,-0.0668 0.28351,0 0.0668,0.0668 -0.0668,0.21669 0,0.28351 0.0878,0.0878 1.32976,-0.0878 1.41755,0 0.0668,0.0668 -0.0668,0.21669 0,0.28351 0.0668,0.0668 0.18901,0 0.28351,0 0.0945,0 0.18901,0 0.28351,0 0.0688,0 0.84141,-0.009 0.85053,0 0.0668,0.0668 -0.0668,0.21669 0,0.28351 0.0878,0.0878 1.32976,-0.0878 1.41755,0 0.0668,0.0668 -0.0668,0.21669 0,0.28351 0.0776,0.0776 0.98024,-0.0769 1.13404,0 0.11954,0.0598 0.16397,0.22374 0.28351,0.28351 0.0845,0.0423 0.18901,0 0.28351,0 0.0945,0 0.18901,0 0.28351,0 0.47252,0 0.94503,0 1.41755,0 0.75602,0 1.51205,0 2.26808,0 0.28351,0 0.56702,0 0.85053,0 0.0945,0 0.189,0 0.28351,0 0.0945,0 0.30912,0.091 0.28351,0 -0.0564,-0.20023 -0.27652,-0.31083 -0.41478,-0.46625"
       style="fill:none;stroke:#000000;stroke-width:1px;stroke-linecap:butt;stroke-linejoin:miter;stroke-opacity:1" />
  </g>
</svg>
