<svg width="50" height="58" viewBox="0 0 50 58" fill="none" xmlns="http://www.w3.org/2000/svg">
<path d="M50 40.1786V2.67857C50 1.1942 48.8058 0 47.3214 0H10.7143C4.79911 0 0 4.79911 0 10.7143V46.4286C0 52.3437 4.79911 57.1428 10.7143 57.1428H47.3214C48.8058 57.1428 50 55.9486 50 54.4643V52.6786C50 51.8415 49.6094 51.0826 49.0067 50.5915C48.5379 48.8728 48.5379 43.9732 49.0067 42.2545C49.6094 41.7745 50 41.0156 50 40.1786ZM14.2857 14.9554C14.2857 14.587 14.5871 14.2857 14.9554 14.2857H38.6161C38.9844 14.2857 39.2857 14.587 39.2857 14.9554V17.1875C39.2857 17.5558 38.9844 17.8571 38.6161 17.8571H14.9554C14.5871 17.8571 14.2857 17.5558 14.2857 17.1875V14.9554ZM14.2857 22.0982C14.2857 21.7299 14.5871 21.4286 14.9554 21.4286H38.6161C38.9844 21.4286 39.2857 21.7299 39.2857 22.0982V24.3304C39.2857 24.6987 38.9844 25 38.6161 25H14.9554C14.5871 25 14.2857 24.6987 14.2857 24.3304V22.0982ZM42.567 50H10.7143C8.73884 50 7.14286 48.404 7.14286 46.4286C7.14286 44.4643 8.75 42.8571 10.7143 42.8571H42.567C42.3549 44.7656 42.3549 48.0915 42.567 50Z" fill="#01B6A9"/>
</svg>
