<svg width="18" height="32" viewBox="0 0 18 32" fill="none" xmlns="http://www.w3.org/2000/svg">
<path d="M11.3114 3.89333V4.28549L11.6923 4.37893C14.9442 5.17678 16.6557 7.52314 16.9484 10.1667H14.0396C13.9201 9.16823 13.5657 8.27201 12.852 7.6021C12.0282 6.82888 10.8067 6.43333 9.15913 6.43333C7.59677 6.43333 6.29198 6.78566 5.36279 7.4429C4.41947 8.11013 3.88507 9.08012 3.88507 10.2222C3.88507 10.7108 3.97914 11.1764 4.20526 11.614C4.43065 12.0502 4.77355 12.4321 5.23372 12.7745C6.13925 13.4482 7.54433 14.0006 9.56317 14.5282C11.5609 15.0503 13.5559 15.7242 15.0481 16.8542C16.5122 17.9628 17.5 19.5144 17.5 21.8667C17.5 23.5489 16.8734 24.8301 15.8578 25.7764C14.8304 26.7338 13.3798 27.3695 11.7177 27.6866L11.3114 27.7641V28.1778V31.5H7.00688V28.1422V27.7382L6.61183 27.6534C3.51261 26.988 0.961988 25.0979 0.546846 21.8333H3.45335C3.62857 22.8116 4.08166 23.7061 4.91896 24.3769C5.87496 25.1428 7.26915 25.5667 9.15913 25.5667C11.1924 25.5667 12.5224 25.0574 13.3482 24.3052C14.1757 23.5515 14.4332 22.6115 14.4332 21.8844C14.4332 20.9509 14.1758 20.0035 13.282 19.1588C12.4155 18.3398 10.9899 17.6554 8.74603 17.114C6.3058 16.5248 4.31255 15.7374 2.93662 14.6324C1.58423 13.5462 0.818271 12.1477 0.818271 10.2578C0.818271 7.15927 3.3017 5.04938 6.61322 4.32856L7.00688 4.24287V3.84V0.5H11.3114V3.89333Z" stroke="#253A90"/>
</svg>
