<?xml version="1.0" encoding="UTF-8" standalone="no"?>
<svg
   width="42"
   height="42"
   viewBox="0 0 42 42"
   fill="none"
   version="1.1"
   id="svg4"
   sodipodi:docname="globe.svg"
   inkscape:version="1.1.1 (3bf5ae0d25, 2021-09-20)"
   xmlns:inkscape="http://www.inkscape.org/namespaces/inkscape"
   xmlns:sodipodi="http://sodipodi.sourceforge.net/DTD/sodipodi-0.dtd"
   xmlns="http://www.w3.org/2000/svg"
   xmlns:svg="http://www.w3.org/2000/svg">
  <defs
     id="defs8" />
  <sodipodi:namedview
     id="namedview6"
     pagecolor="#ffffff"
     bordercolor="#999999"
     borderopacity="1"
     inkscape:pageshadow="0"
     inkscape:pageopacity="0"
     inkscape:pagecheckerboard="0"
     showgrid="false"
     inkscape:zoom="2.8284271"
     inkscape:cx="-0.88388347"
     inkscape:cy="3.0052038"
     inkscape:window-width="1920"
     inkscape:window-height="1017"
     inkscape:window-x="-8"
     inkscape:window-y="-8"
     inkscape:window-maximized="1"
     inkscape:current-layer="svg4" />
  <path
     d="m 28.7273,25.308 v -10e-5 l -1.1593,-1.1592 -3e-4,-3e-4 C 26.9653,23.547 26.1499,23.2088 25.2982,23.2088 H 19.7886 C 19.6952,23.137 19.5665,23.0069 19.3997,22.8017 19.2489,22.6164 19.097,22.409 18.9344,22.1869 18.8675,22.0956 18.7989,22.0019 18.7277,21.9062 18.4942,21.592 17.9687,21.0047 17.9687,21.0047 2.653491,19.23604 15.009866,20.848928 18.872219,30.601852 24.93166,44.920282 29.491514,34.166972 28.7273,25.308 Z m -0.4066,5.3271 c -0.3303,0.3287 -0.6759,0.6726 -0.9562,0.9537 m -2.3794,6.3798 C 21.530763,38.224225 20.535902,37.919926 20.5,35.617 20.345061,34.04225 19.561693,32.670996 18.7302,31.6309 18.1283,31.0289 17.958282,30.195766 17.7903,29.361 L 17.285492,26.852423 C 17.126703,26.063341 17.3572,25.1079 16.6547,24.7197 l -2e-4,-10e-5 C 15.4383,24.0468 13.7147,23.11 12.5385,22.5177 11.525,22.0074 10.5891,21.3585 9.7489,20.6011 c 2.7896,1.9166 5.354393,2.193553 6.216264,3.722993 3.51517,6.747196 3.910273,14.15022 9.019936,13.644507 z m 0,0 0.0951,-0.2563 m 0,0 1.4725,-3.9669 c 0,-10e-5 10e-5,-10e-5 10e-5,-2e-4 0.1385,-0.3727 0.2381,-0.767 0.3298,-1.1298 0.03831,-0.404011 0.312779,-0.733142 0.4819,-1.0266 M 9.68116,20.5401 9.74858,20.6008 c 2.744066,-0.708262 5.990011,-4.094994 8.22902,-2.0999 1.238467,0.725619 2.05335,-0.255277 2.3019,-1.4155 v -10e-5 l -1.3198,-2.6406 c -0.0169,-0.0337 -0.0226,-0.072 -0.0162,-0.1092 0.0063,-0.0372 0.0242,-0.0714 0.0512,-0.0977 l 10e-5,-10e-5 0.8398,-0.817 1e-4,-10e-5 c 0.0337,-0.0327 0.0779,-0.0505 0.1238,-0.0505 h 0.761 2e-4 c 0.3122,10e-5 0.6116,-0.1237 0.8325,-0.3442 l 3e-4,-4e-4 0.6775,-0.6774 c 0.4594,-0.4594 0.4594,-1.2053 0,-1.6648 l -0.3972,-0.3971 c -0.0689,-0.069 -0.0689,-0.1817 0,-0.2506 l 0.8752,-0.87522 4e-4,-3.7e-4 0.3968,-0.39592 3e-4,-3.8e-4 c 0.7245,-0.72449 0.7245,-1.89886 0,-2.62335 L 20.7092,3.74399 20.5549,3.58972 20.3369,3.59789 C 19.6158,3.62492 18.907,3.69642 18.2106,3.80885 l -0.4203,0.06786 v 0.42575 0.95685 c 0,0.63565 -0.6687,1.04888 -1.2374,0.76456 -10e-5,-10e-6 -10e-5,-2e-5 -10e-5,-4e-5 L 14.5198,5.0069 14.3113,4.90262 14.0974,4.99524 c -3.9967,1.7307 -7.21183,4.91569 -8.996,8.88146 l -0.11424,0.2539 0.15572,0.2309 c 0.84058,1.246 2.13519,3.1651 2.93026,4.3323 0.45994,0.6774 0.99964,1.2971 1.60748,1.8458 z m 25.50784,2.4903 3e-4,10e-5 2.4709,0.6173 0.5452,0.1362 0.0719,-0.5574 c 0.0931,-0.7229 0.1582,-1.4644 0.1582,-2.2266 0,-2.8027 -0.6806,-5.4433 -1.8585,-7.7886 l -0.224,-0.4461 -0.4464,0.2233 -1.0982,0.549 c -10e-5,10e-5 -2e-4,2e-4 -4e-4,2e-4 -0.3958,0.1969 -0.731,0.4947 -0.975,0.8597 l -4e-4,6e-4 -1.6586,2.4875 c -10e-5,10e-5 -10e-5,2e-4 -2e-4,3e-4 -0.2776,0.4158 -0.4257,0.9045 -0.4257,1.4044 0,0.5 0.1482,0.9889 0.4259,1.4047 l 1.5221,2.2833 c 0.3496,0.5248 0.8825,0.8992 1.4929,1.0521 z M 0.5,21 C 0.5,9.67788 9.67788,0.5 21,0.5 32.3221,0.5 41.5,9.67788 41.5,21 41.5,32.3221 32.3221,41.5 21,41.5 9.67788,41.5 0.5,32.3221 0.5,21 Z"
     stroke="#253a90"
     id="path2"
     sodipodi:nodetypes="cccssccccccccccccssccccccccccccccccccccsccsscscccccccccccccscccsccccccccccccccccscccccscccscccsssss" />
</svg>
