<svg width="50" height="53" viewBox="0 0 50 53" fill="none" xmlns="http://www.w3.org/2000/svg">
<path fill-rule="evenodd" clip-rule="evenodd" d="M27.2399 0.000351959C34.2929 -0.0349532 41.2816 2.58522 45.636 8.14518C49.9527 13.6569 51.0269 21.1145 49.0363 27.8311C47.1887 34.065 41.7227 37.9959 35.9237 40.9154C29.9586 43.9185 23.2435 46.568 17.1225 43.8982C10.7843 41.1337 7.28852 34.5141 5.75974 27.7587C4.23402 21.0169 4.84534 13.7912 9.07276 8.3282C13.366 2.78012 20.2338 0.0354219 27.2399 0.000351959Z" fill="#01B6A9" fill-opacity="0.63"/>
<path d="M43.125 30.5C43.125 35.9701 40.952 41.2161 37.0841 45.0841C33.2161 48.952 27.9701 51.125 22.5 51.125M43.125 30.5C43.125 25.0299 40.952 19.7839 37.0841 15.9159C33.2161 12.048 27.9701 9.875 22.5 9.875M43.125 30.5H1.875M22.5 51.125C17.0299 51.125 11.7839 48.952 7.91592 45.0841C4.04798 41.2161 1.875 35.9701 1.875 30.5M22.5 51.125C26.2973 51.125 29.375 41.8896 29.375 30.5C29.375 19.1104 26.2973 9.875 22.5 9.875M22.5 51.125C18.7027 51.125 15.625 41.8896 15.625 30.5C15.625 19.1104 18.7027 9.875 22.5 9.875M1.875 30.5C1.875 25.0299 4.04798 19.7839 7.91592 15.9159C11.7839 12.048 17.0299 9.875 22.5 9.875" stroke="#253A90" stroke-width="2" stroke-linecap="round" stroke-linejoin="round"/>
</svg>
