<svg width="67" height="48" viewBox="0 0 67 48" fill="none" xmlns="http://www.w3.org/2000/svg">
<path fill-rule="evenodd" clip-rule="evenodd" d="M30.5217 0.627725C37.1698 1.35788 43.8385 3.46296 47.6574 8.85595C51.2324 13.9045 49.9663 20.327 48.7414 26.3572C47.4517 32.7068 46.1421 39.3783 40.7117 43.051C34.1962 47.4576 25.9271 49.4499 18.4818 46.8227C10.0932 43.8626 2.88769 37.4432 0.743593 28.9476C-1.44113 20.2911 1.27064 10.6826 7.79487 4.47789C13.6046 -1.04731 22.4838 -0.255068 30.5217 0.627725Z" fill="#8960FF" fill-opacity="0.58"/>
<path d="M31.3433 9.32116L31.3435 9.3211C32.743 8.89299 34.2562 8.89293 35.657 9.32115L35.9493 8.36484L35.657 9.32115L64.8584 18.2481C66.3805 18.7137 66.3805 20.62 64.8584 21.0856L35.656 30.0125C35.656 30.0125 35.6559 30.0125 35.6559 30.0125C33.7814 30.5854 32.1781 30.2677 31.3419 30.0124L10.8685 23.7532L10.4085 23.6126L10.0116 23.8841C8.48055 24.9312 7.50737 26.5964 7.41139 28.4837L7.38112 29.079L7.89029 29.3888C8.60074 29.8211 9.04952 30.5285 9.04952 31.3334C9.04952 32.0784 8.65927 32.7386 8.02206 33.1882L7.47725 33.5726L7.62259 34.2233L10.2953 46.1899C10.3868 46.5996 10.074 47 9.636 47H3.76196C3.32542 47 3.01212 46.6001 3.10374 46.1899L5.77642 34.2233L5.92175 33.5726L5.37695 33.1882C4.73974 32.7386 4.34949 32.0784 4.34949 31.3334C4.34949 30.5019 4.82281 29.7731 5.56285 29.3511L6.04612 29.0754L6.06673 28.5195C6.12612 26.9175 6.72427 25.4467 7.71516 24.2279L8.6524 23.075L7.23157 22.6407L2.1406 21.0845L2.14053 21.0845C0.619824 20.6197 0.619824 18.7129 2.14053 18.2482L2.1406 18.2482L31.3433 9.32116ZM37.2247 35.1116L51.2711 30.8174L52.5985 41.3865C52.5775 41.8593 52.2738 42.4588 51.4031 43.1416C50.5112 43.841 49.1585 44.5144 47.3978 45.0984C43.8868 46.2628 38.973 47 33.4996 47C28.0262 47 23.1124 46.2628 19.6014 45.0984C17.8407 44.5144 16.488 43.841 15.5962 43.1416C14.7254 42.4588 14.4217 41.8593 14.4007 41.3865L15.7281 30.8184L29.7733 35.1116C31.2213 35.5545 33.9823 36.1022 37.2245 35.1117L36.9323 34.1553L37.2247 35.1116Z" stroke="#253A90" stroke-width="2"/>
</svg>
