<svg width="46" height="46" viewBox="0 0 46 46" fill="none" xmlns="http://www.w3.org/2000/svg">
<path fill-rule="evenodd" clip-rule="evenodd" d="M22.7341 0.00035978C29.9439 -0.03573 37.0878 2.64267 41.539 8.32618C45.9517 13.9604 47.0498 21.5838 45.0149 28.4495C43.1263 34.822 37.5387 38.8402 31.6109 41.8246C25.5132 44.8945 18.6489 47.6029 12.3919 44.8737C5.91279 42.0478 2.33937 35.281 0.776619 28.3756C-0.783 21.4839 -0.158101 14.0977 4.16326 8.51327C8.55192 2.84191 15.5723 0.0362091 22.7341 0.00035978Z" fill="#E2D101" fill-opacity="0.67"/>
<path d="M14.5241 1.75874L14.5242 1.75893L19.3294 9.76712C16.7182 10.3996 14.3365 11.6098 12.3244 13.2593L4.05326 1.44327C4.05322 1.44322 4.05319 1.44318 4.05316 1.44313C3.92211 1.25553 4.05644 1 4.2836 1H13.1843C13.4541 1 13.7194 1.06989 13.9541 1.20286C14.1889 1.33583 14.3853 1.52734 14.5241 1.75874ZM32.4758 1.75893L32.476 1.75865C32.7581 1.28814 33.2669 1 33.8157 1H42.7164C42.9436 1 43.0779 1.25565 42.9467 1.44327L34.6755 13.2587C32.6635 11.6097 30.2818 10.3996 27.6706 9.76712L32.4758 1.75893ZM28.9461 28.7144L31.6064 26.1221C31.6065 26.122 31.6066 26.1219 31.6067 26.1218C32.746 25.0121 32.118 23.0749 30.5435 22.8472L26.8663 22.3113L25.2225 18.9775L25.2213 18.9751C24.8688 18.265 24.1731 17.908 23.4984 17.908C22.8251 17.908 22.1306 18.263 21.7783 18.9776L20.1345 22.3113L16.4573 22.8472C14.8828 23.0749 14.2548 25.0121 15.3941 26.1218C15.3942 26.1219 15.3943 26.122 15.3944 26.1221L18.0547 28.7144L17.4255 32.3777L17.4253 32.3783C17.1586 33.9373 18.7982 35.146 20.2104 34.3998C20.2111 34.3995 20.2118 34.3991 20.2125 34.3988L23.5 32.6709L26.7904 34.3998C28.1962 35.1404 29.8432 33.9445 29.5755 32.3785L29.5753 32.3777L28.9461 28.7144ZM10.4062 26.9062C10.4062 19.6749 16.2687 13.8125 23.5 13.8125C30.7313 13.8125 36.5938 19.6749 36.5938 26.9062C36.5938 34.1376 30.7313 40 23.5 40C16.2687 40 10.4062 34.1376 10.4062 26.9062Z" stroke="#253A90" stroke-width="2"/>
</svg>
