<svg width="61" height="52" viewBox="0 0 61 52" fill="none" xmlns="http://www.w3.org/2000/svg">
<path fill-rule="evenodd" clip-rule="evenodd" d="M21.0979 1.98475C15.5302 3.37363 11.7789 7.78342 7.92167 12.0455C4.34292 15.9999 0.338898 19.9362 0.0256335 25.2689C-0.302471 30.8542 2.55981 35.9736 6.27075 40.149C10.2475 44.6235 15.2441 47.7801 21.0979 48.9788C28.7239 50.5404 37.8666 53.1395 43.5269 47.7781C49.2171 42.3885 46.2243 33.1206 46.1297 25.2689C46.0371 17.578 48.612 8.52582 42.9911 3.29734C37.4171 -1.88746 28.4734 0.144885 21.0979 1.98475Z" fill="#548CE4" fill-opacity="0.65"/>
<path d="M57.5035 18.5108L57.5073 18.5146L59.9832 21.0393L60.6972 20.3391L59.987 21.0431C59.9929 21.0491 60.0002 21.0595 60 21.0822C59.9998 21.1053 59.9913 21.1294 59.973 21.1495L47.4011 33.7329C47.4008 33.7333 47.4004 33.7336 47.4001 33.734C47.3839 33.7494 47.3687 33.7534 47.3564 33.7534C47.3498 33.7534 47.3444 33.7521 47.3405 33.7504C47.3372 33.749 47.3321 33.7464 47.3252 33.7392L47.3202 33.7341L40.0488 26.3451C40.0484 26.3447 40.048 26.3443 40.0476 26.3438C40.0317 26.3269 40.0248 26.3074 40.0249 26.2874C40.025 26.2679 40.0313 26.2547 40.0426 26.2437L40.0476 26.2386L42.5452 23.737C42.5456 23.7366 42.546 23.7362 42.5464 23.7358C42.5625 23.7205 42.5777 23.7165 42.59 23.7165C42.5966 23.7166 42.6019 23.7179 42.6059 23.7195C42.6075 23.7202 42.6096 23.7212 42.6121 23.7229C42.6146 23.7246 42.6177 23.7271 42.6212 23.7307L42.6264 23.736L46.6787 27.8509L47.3862 28.5692L48.0987 27.8559L57.4275 18.5171C57.4279 18.5167 57.4283 18.5163 57.4287 18.5159C57.4448 18.5005 57.46 18.4966 57.4723 18.4966C57.4755 18.4966 57.4784 18.4969 57.481 18.4975C57.4838 18.498 57.4862 18.4988 57.4882 18.4996C57.4915 18.501 57.4966 18.5036 57.5035 18.5108ZM34.35 17.5C34.35 23.3079 29.6862 28 23.95 28C18.2138 28 13.55 23.3079 13.55 17.5C13.55 11.6921 18.2138 7 23.95 7C29.6862 7 34.35 11.6921 34.35 17.5ZM23.95 34.3125C26.3378 34.3125 28.6092 33.7922 30.6596 32.875H31.93C37.9779 32.875 42.9 37.8276 42.9 43.95V47.6875C42.9 49.5243 41.4246 51 39.625 51H8.275C6.47534 51 5 49.5243 5 47.6875V43.95C5 37.8276 9.92206 32.875 15.97 32.875H17.2412C19.2978 33.7917 21.5608 34.3125 23.95 34.3125Z" stroke="#253A90" stroke-width="2"/>
</svg>
