<svg width="25" height="25" viewBox="0 0 25 25" fill="none" xmlns="http://www.w3.org/2000/svg" stroke-width="0.7">
<g clip-path="url(#clip0_3072_2307)">
<path d="M16.291 21.8982V19.8982C16.291 18.8373 15.8696 17.8199 15.1194 17.0698C14.3693 16.3196 13.3519 15.8982 12.291 15.8982H5.29102C4.23015 15.8982 3.21273 16.3196 2.46259 17.0698C1.71244 17.8199 1.29102 18.8373 1.29102 19.8982V21.8982" stroke="#253A90" stroke-linecap="round" stroke-linejoin="round"/>
<path d="M8.79102 11.8982C11.0002 11.8982 12.791 10.1073 12.791 7.89819C12.791 5.68905 11.0002 3.89819 8.79102 3.89819C6.58188 3.89819 4.79102 5.68905 4.79102 7.89819C4.79102 10.1073 6.58188 11.8982 8.79102 11.8982Z" stroke="#253A90" stroke-linecap="round" stroke-linejoin="round"/>
<path d="M17.291 11.8982L19.291 13.8982L23.291 9.89819" stroke="#253A90" stroke-linecap="round" stroke-linejoin="round"/>
</g>
<defs>
<clipPath id="clip0_3072_2307">
<rect width="24" height="24" fill="white" transform="translate(0.291016 0.898193)"/>
</clipPath>
</defs>
</svg>
