<svg width="56" height="64" viewBox="0 0 56 64" fill="none" xmlns="http://www.w3.org/2000/svg">
<path fill-rule="evenodd" clip-rule="evenodd" d="M27.6763 8.00044C36.4534 7.9565 45.1504 11.2172 50.5693 18.1362C55.9412 24.9953 57.278 34.2759 54.8008 42.6342C52.5015 50.392 45.6993 55.2837 38.4829 58.9169C31.0596 62.6542 22.703 65.9513 15.0857 62.6289C7.19818 59.1886 2.84793 50.9508 0.94545 42.5442C-0.953217 34.1544 -0.19247 25.1624 5.06832 18.364C10.411 11.4597 18.9576 8.04408 27.6763 8.00044Z" fill="#E2D101" fill-opacity="0.67"/>
<path d="M49.0439 41.5127L49.0446 41.5137C51.6266 45.6104 48.6644 51 43.7195 51H12.279C7.34334 51 4.37191 45.6192 6.95448 41.5129L6.95461 41.5126L18.9887 22.3681L19.142 22.1241V21.8359V6.5V5.5H18.142H17.3206C16.4969 5.5 15.8563 4.85071 15.8563 4.0625V2.4375C15.8563 1.64929 16.4969 1 17.3206 1H38.6779C39.5016 1 40.1422 1.64929 40.1422 2.4375V4.0625C40.1422 4.85071 39.5016 5.5 38.6779 5.5H37.8565H36.8565V6.5V21.8359V22.1241L37.0099 22.3681L49.0439 41.5127ZM18.3117 31.9682L17.3498 33.5H19.1585H36.8194H38.6282L37.6663 31.9682L32.7172 24.0869L32.7039 24.0658L32.6895 24.0453C32.4285 23.6723 32.2747 23.2304 32.2747 22.75V6.5V5.5H31.2747H24.7032H23.7032V6.5V22.75C23.7032 23.2314 23.5533 23.6771 23.2959 24.0348L23.2776 24.0603L23.2608 24.0869L18.3117 31.9682Z" stroke="#253A90" stroke-width="2"/>
</svg>
