<svg width="53" height="53" viewBox="0 0 53 53" fill="none" xmlns="http://www.w3.org/2000/svg">
<path fill-rule="evenodd" clip-rule="evenodd" d="M21.9956 2.06258C16.191 3.50593 12.2801 8.08865 8.25876 12.5179C4.52772 16.6274 0.353318 20.718 0.0267228 26.2598C-0.315344 32.0641 2.66874 37.3843 6.53759 41.7235C10.6836 46.3735 15.8928 49.6538 21.9956 50.8995C29.9462 52.5224 39.478 55.2234 45.3791 49.6518C51.3114 44.0508 48.1913 34.4194 48.0927 26.2598C47.9961 18.2673 50.6806 8.86017 44.8205 3.42664C39.0093 -1.96148 29.6851 0.150567 21.9956 2.06258Z" fill="#548CE4" fill-opacity="0.65"/>
<path d="M2.83301 7.25H17.333C19.8968 7.25 22.3555 8.26845 24.1684 10.0813C25.9812 11.8942 26.9997 14.3529 26.9997 16.9167V50.75C26.9997 48.8272 26.2358 46.9831 24.8762 45.6235C23.5166 44.2638 21.6725 43.5 19.7497 43.5H2.83301V7.25Z" stroke="#253A90" stroke-width="2" stroke-linecap="round" stroke-linejoin="round"/>
<path d="M51.1667 7.25H36.6667C34.1029 7.25 31.6442 8.26845 29.8313 10.0813C28.0184 11.8942 27 14.3529 27 16.9167V50.75C27 48.8272 27.7638 46.9831 29.1235 45.6235C30.4831 44.2638 32.3272 43.5 34.25 43.5H51.1667V7.25Z" stroke="#253A90" stroke-width="2" stroke-linecap="round" stroke-linejoin="round"/>
</svg>
