<svg width="55" height="33" viewBox="0 0 55 33" fill="none" xmlns="http://www.w3.org/2000/svg">
<path d="M25.6364 0.778947L25.6365 0.778918C26.8461 0.407037 28.1532 0.407009 29.3638 0.778945L29.5105 0.301541L29.3638 0.778946L53.3352 8.14371C53.3352 8.14372 53.3353 8.14373 53.3353 8.14374C54.8883 8.62125 54.8882 10.6291 53.3352 11.1066L29.363 18.4713C29.363 18.4713 29.3629 18.4714 29.3629 18.4714C27.7426 18.969 26.3576 18.6929 25.6354 18.4713L8.82872 13.3074L8.59776 13.2365L8.39865 13.3733C7.22158 14.1824 6.47788 15.4646 6.40445 16.9157L6.38944 17.2125L6.64296 17.3675C7.30664 17.7734 7.7496 18.4547 7.7496 19.2501C7.7496 19.9886 7.36259 20.6258 6.7693 21.0465L6.49836 21.2386L6.57041 21.5628L8.7644 31.4353C8.88581 31.9816 8.47022 32.5 7.91015 32.5H3.08818C2.52919 32.5 2.11333 31.9818 2.23478 31.4353L4.42877 21.5628L4.50083 21.2386L4.22988 21.0465C3.6366 20.6258 3.24958 19.9886 3.24958 19.2501C3.24958 18.4305 3.71527 17.7291 4.40847 17.3318L4.64925 17.1938L4.65948 16.9164C4.71106 15.5183 5.23097 14.2379 6.08512 13.182L6.5504 12.6069L5.84322 12.3896L1.66407 11.1057L1.66403 11.1057C0.111989 10.629 0.11199 8.62044 1.66403 8.14375L1.66407 8.14374L25.6364 0.778947ZM30.4643 22.0561L30.4644 22.0561L42.3588 18.4016L43.4994 27.5287C43.488 28.0616 43.1578 28.646 42.3936 29.2483C41.6213 29.857 40.4728 30.427 39.0089 30.9149C36.0865 31.889 32.0173 32.5 27.4997 32.5C22.982 32.5 18.9129 31.889 15.9904 30.9149C14.5266 30.427 13.3781 29.857 12.6057 29.2483C11.8415 28.646 11.5113 28.0616 11.4999 27.5287L12.6405 18.4024L24.534 22.056C24.534 22.0561 24.5341 22.0561 24.5341 22.0561C25.6867 22.4104 27.8843 22.8483 30.4643 22.0561Z" stroke="#253A90"/>
</svg>
