<?xml version="1.0" encoding="UTF-8" standalone="no"?>
<!-- Created with Inkscape (http://www.inkscape.org/) -->

<svg
   xmlns:dc="http://purl.org/dc/elements/1.1/"
   xmlns:cc="http://creativecommons.org/ns#"
   xmlns:rdf="http://www.w3.org/1999/02/22-rdf-syntax-ns#"
   xmlns:svg="http://www.w3.org/2000/svg"
   xmlns="http://www.w3.org/2000/svg"
   xmlns:sodipodi="http://sodipodi.sourceforge.net/DTD/sodipodi-0.dtd"
   xmlns:inkscape="http://www.inkscape.org/namespaces/inkscape"
   inkscape:version="0.92.3 (2405546, 2018-03-11)"
   sodipodi:docname="face-colour-shifted.svg"
   viewBox="0 0 260.229 257.69827"
   height="257.69827"
   width="260.229"
   id="svg176"
   version="1.1">
  <metadata
     id="metadata182">
    <rdf:RDF>
      <cc:Work
         rdf:about="">
        <dc:format>image/svg+xml</dc:format>
        <dc:type
           rdf:resource="http://purl.org/dc/dcmitype/StillImage" />
        <dc:title></dc:title>
      </cc:Work>
    </rdf:RDF>
  </metadata>
  <defs
     id="defs180" />
  <sodipodi:namedview
     inkscape:current-layer="svg176"
     inkscape:window-maximized="1"
     inkscape:window-y="-8"
     inkscape:window-x="-8"
     inkscape:cy="158.6392"
     inkscape:cx="131.57213"
     inkscape:zoom="2.4941176"
     showgrid="false"
     id="namedview178"
     inkscape:window-height="1017"
     inkscape:window-width="1920"
     inkscape:pageshadow="2"
     inkscape:pageopacity="0"
     guidetolerance="10"
     gridtolerance="10"
     objecttolerance="10"
     borderopacity="1"
     bordercolor="#666666"
     pagecolor="#ffffff" />
  <g
     inkscape:groupmode="layer"
     id="layer3"
     inkscape:label="Layer 3"
     style="display:inline"
     transform="translate(-129.93158,-66.453834)">
    <g
       style="display:inline"
       id="g4823"
       transform="translate(128.1055,60.076425)">
      <path
         inkscape:connector-curvature="0"
         id="path274"
         d="m 79.944125,85.210202 c -0.9684,-1.07709 -2.64149,-3.61684 -3.71799,-5.64389 -1.99462,-3.75588 -4.17634,-6.14155 -6.32318,-6.91425 -1.05158,-0.37849 -1.10289,-0.52027 -1.10888,-3.064 -0.003,-1.46693 -0.37505,-4.38118 -0.82577,-6.47611 -1.14755,-5.33376 -1.06125,-8.47162 0.3948,-14.35543 1.4258,-5.76157 2.43914,-8.25404 3.6107,-8.88103 0.63275,-0.33864 0.78256,-0.69295 0.60019,-1.41955 -0.29653,-1.18147 1.43035,-6.54747 3.32328,-10.32652 1.09163,-2.17935 1.67597,-2.86997 2.99969,-3.54528 0.90418,-0.46128 2.86284,-2.0399 4.35258,-3.50803 2.97121,-2.92813 6.13554,-4.50281 10.63028,-5.29001 1.31183,-0.22975 4.55025,-0.86313 7.196475,-1.40751 10.86892,-2.23596 18.02049,-2.98833 28.40525,-2.98833 8.48494,0 10.03485,-0.0995 12.49097,-0.80189 4.23991,-1.2124999 4.24604,-1.2102699 3.57696,1.30307 -1.14245,4.29146 -0.5548,5.51297 2.65219,5.51297 2.31233,0 2.79208,0.57657 2.79208,3.35556 0,2.65138 0.47735,3.52005 2.96746,5.40011 1.23465,0.93216 2.2448,1.96562 2.2448,2.29659 0,0.33096 -0.4541,1.49788 -1.00911,2.59314 -0.97143,1.91702 -1.0725,1.99123 -2.70637,1.98697 -1.72316,-0.004 -9.59514,1.30319 -12.52272,2.08024 -3.24508,0.86132 -5.99087,0.85276 -7.91696,-0.0247 -3.74875,-1.70775 -6.90183,-2.16939 -15.93918,-2.33363 -9.16669,-0.1666 -15.27091,0.40335 -20.241815,1.88998 -1.32631,0.39666 -3.3136,0.84653 -4.4162,0.99972 -2.91496,0.40501 -3.29351,0.73487 -4.19582,3.65622 -1.48435,4.80574 -0.77999,9.68327 1.81279,12.55316 1.37147,1.51805 1.38068,1.5539 1.38068,5.37483 0,3.81897 -0.68215,6.96827 -1.79455,8.285 -0.27945,0.33077 -0.82651,1.57905 -1.21569,2.77395 -0.60952,1.8714 -0.6688,3.02099 -0.42765,8.29336 0.23439,5.12498 0.17368,6.43378 -0.37316,8.04446 -0.77573,2.28489 -1.08556,2.52499 -3.26854,2.53303 -1.49061,0.005 -1.85303,-0.20093 -3.42759,-1.95222 z"
         style="fill:#552200;stroke-width:0.4009434" />
      <path
         inkscape:connector-curvature="0"
         id="path276"
         d="m 134.63099,175.24179 c -1.54363,-0.41146 -3.79894,-0.8685 -5.01179,-1.01563 -1.21286,-0.14714 -2.38561,-0.39603 -2.60613,-0.55307 -0.22052,-0.15705 -2.20519,-0.50772 -4.41038,-0.77926 -2.20519,-0.27154 -4.86771,-0.66042 -5.91671,-0.86418 -2.26983,-0.44089 -7.00251,-2.75034 -8.07822,-3.94199 -0.55252,-0.61209 -1.24223,-0.84612 -2.49354,-0.84612 -2.18713,0 -4.29394,-1.09319 -6.563452,-3.40565 -2.39492,-2.44024 -5.04912,-3.40991 -9.3393,-3.41196 -2.85829,-0.001 -3.79531,-0.19995 -7.10171,-1.50502 -2.09492,-0.82689 -4.46174,-1.90873 -5.25958,-2.40408 -0.79785,-0.49536 -1.74508,-0.90065 -2.10496,-0.90065 -0.35988,0 -0.65432,-0.062 -0.65432,-0.1377 0,-0.67739 1.7863,-5.10462 2.3957,-5.9376 0.9458,-1.29279 2.44909,-7.1862 3.58575,-14.05735 0.46376,-2.8035 1.02169,-5.56672 1.23984,-6.14049 0.63542,-1.67127 0.46008,-5.3329 -0.39167,-8.17955 -0.43357,-1.44901 -1.35791,-5.07031 -2.05409,-8.04731 -0.69618,-2.97701 -1.49005,-5.77548 -1.76415,-6.21883 -0.27411,-0.44335 -1.55997,-1.2194 -2.85747,-1.72455 -4.98753,-1.94176 -5.50487,-2.61589 -6.18792,-8.063304 -0.22874,-1.82425 -0.95347,-4.65862 -1.62058,-6.33798 -1.06682,-2.68556 -1.20918,-3.5307 -1.22733,-7.28649 -0.0182,-3.75655 0.10852,-4.56199 1.09383,-6.95494 0.66454,-1.6139 1.35304,-2.70636 1.70562,-2.70636 1.41276,0 4.00824,2.64496 5.50819,5.6132 1.7292,3.42192 4.06316,6.74932 5.56024,7.92692 0.56033,0.44076 1.83166,0.92328 2.82517,1.07226 2.57953,0.38683 3.88068,-0.47892 4.80451,-3.19678 0.62805,-1.84769 0.68418,-2.8986 0.43303,-8.10686 -0.29917,-6.20391 0.1341,-9.2837 1.53243,-10.89309 1.56859,-1.80534 2.74278,-9.61422 1.90805,-12.68941 -0.24332,-0.89644 -0.91125,-2.0692 -1.48428,-2.60613 -0.57303,-0.53694 -1.29676,-1.58466 -1.60828,-2.32828 -0.79094,-1.888 -0.74336,-7.54724 0.0801,-9.52471 0.7443,-1.78742 1.16595,-2.13926 2.57393,-2.14778 0.55837,-0.003 2.00177,-0.27552 3.20755,-0.60477 7.659402,-2.09145 11.774902,-2.60891 20.749422,-2.60891 5.45479,0 8.90227,0.15511 9.15926,0.4121 0.22666,0.22666 1.50536,0.58817 2.84155,0.80336 1.3362,0.21519 3.46233,0.86412 4.72474,1.44207 1.9115,0.87512 2.64706,1.00947 4.39915,0.80355 1.15712,-0.136 2.75496,-0.51932 3.55075,-0.85182 0.79579,-0.3325 2.12928,-0.60669 2.96331,-0.6093 0.83403,-0.003 2.50875,-0.27112 3.7216,-0.59666 1.21285,-0.32554 3.26219,-0.59404 4.55408,-0.59666 l 2.34889,-0.005 -0.32914,1.1026 c -0.53184,1.78162 -0.27124,4.20365 0.77427,7.19613 0.53796,1.53976 1.11217,3.95463 1.27602,5.36638 0.16385,1.41175 0.90661,4.40519 1.65057,6.65209 1.0593,3.19925 1.35267,4.74622 1.35267,7.13277 0,1.80185 0.24582,3.63582 0.60141,4.48688 0.81327,1.94641 0.78762,6.63442 -0.0451,8.24473 -1.71121,3.30913 -2.16935,10.93745 -1.1018,18.34606 0.5649,3.92031 0.59395,5.31381 0.19645,9.422174 -0.33004,3.41097 -0.67648,5.11465 -1.18425,5.82378 -1.82438,2.5478 -3.69193,7.0232 -4.31233,10.33411 -0.85878,4.58296 -1.7416,6.85713 -4.13057,10.64038 -1.08344,1.71577 -2.09379,3.78774 -2.24523,4.60438 -0.36102,1.94683 -1.74666,3.72431 -3.66707,4.70409 -0.8518,0.43458 -2.42326,1.37406 -3.49213,2.08773 -1.06887,0.71367 -2.69355,1.49811 -3.61039,1.74321 -0.91685,0.2451 -1.86708,0.60939 -2.11163,0.80953 -1.15224,0.94304 -4.60884,1.55354 -8.77707,1.55019 -5.79863,-0.005 -9.85418,-0.75295 -12.62971,-2.3303 -1.21286,-0.68927 -3.64859,-2.0014 -5.41274,-2.91586 -1.76415,-0.91445 -3.92925,-2.14831 -4.81132,-2.7419 -0.88208,-0.5936 -2.811082,-1.39906 -4.286672,-1.78992 -2.4935,-0.66049 -3.53173,-0.6258 -3.53173,0.11801 0,0.30329 3.86928,1.65333 4.73854,1.65333 0.25199,0 1.40889,0.60729 2.570892,1.34954 1.16201,0.74224 3.37571,2.0082 4.91935,2.81324 1.54363,0.80504 3.79894,2.03104 5.01179,2.72444 2.90036,1.65817 6.53558,2.28742 13.36481,2.31338 5.25288,0.02 5.70539,-0.0426 8.55034,-1.18173 1.65216,-0.66156 3.22561,-1.20283 3.49655,-1.20283 0.27094,0 1.34613,-0.54128 2.38929,-1.20283 2.19844,-1.39421 2.45742,-1.45679 2.07412,-0.50118 -0.43194,1.07686 -1.69183,10.83019 -2.26591,17.54127 -0.89339,10.44397 -0.60544,13.67466 1.38047,15.48851 l 1.25979,1.15064 -1.79336,-0.0362 c -0.98635,-0.0199 -3.05634,-0.37283 -4.59997,-0.7843 z"
         style="fill:#e9c6af;stroke-width:0.4009434" />
      <path
         inkscape:connector-curvature="0"
         id="path4818"
         d="m 133.35225,262.26759 c -3.74883,-0.22569 -12.4092,-0.35366 -19.24529,-0.2844 -26.985352,0.27344 -50.251972,0.13592 -61.143872,-0.36141 -6.28478,-0.28696 -17.13259,-0.61436 -24.10623,-0.72754 l -12.67936,-0.20578 -0.22164,-1.86019 c -0.1219,-1.02309 -0.89988,-3.21336 -1.72884,-4.86725 l -1.50721,-3.00708 -0.4868,-9.82311 c -0.34249,-6.9111 -0.72853,-10.89283 -1.30223,-13.4316 -1.0707497,-4.73834 -1.8253297,-11.47479 -1.5446797,-13.78996 0.12313,-1.01576 0.49232,-2.38811 0.8204097,-3.04967 0.32809,-0.66155 0.8623,-2.76412 1.18713,-4.67237 0.36671,-2.15429 1.0783,-4.43417 1.87712,-6.01415 0.70758,-1.39953 1.83557,-3.62716 2.50664,-4.95027 0.67107,-1.32311 1.60314,-3.33734 2.07128,-4.47606 0.83799,-2.0384 2.31447,-3.75745 8.14817,-9.48686 2.27638,-2.23569 3.37644,-2.97445 6.01075,-4.03661 1.77343,-0.71506 4.46244,-2.04438 5.97557,-2.95405 1.51314,-0.90966 5.00646,-2.64211 7.76294,-3.84988 7.67942,-3.36477 9.55906,-4.36907 13.03066,-6.96232 2.39776,-1.7911 4.32101,-2.8093 7.61793,-4.03307 2.42571,-0.90039 5.09505,-1.92527 5.93187,-2.27751 2.33816,-0.9842 4.03614,-0.89068 5.87066,0.32334 0.88653,0.58669 1.8503,1.0667 2.1417,1.0667 0.2914,0 0.70123,0.15818 0.91072,0.35151 1.05344,0.97217 5.57583,2.05584 8.70207,2.08523 4.13635,0.0389 6.51331,0.8552 8.87879,3.04928 3.084662,2.86115 4.642172,3.73568 6.653102,3.73568 1.34074,0 2.07656,0.24203 2.81377,0.92551 1.33675,1.23933 5.42672,3.34926 7.41336,3.8244 0.88207,0.21096 2.86674,0.49974 4.41037,0.64174 1.54364,0.14199 3.79894,0.51375 5.0118,0.82613 1.21285,0.31238 3.28773,0.68959 4.61085,0.83823 1.32311,0.14864 2.58608,0.40448 2.8066,0.56853 0.68837,0.51208 6.79417,1.59716 8.98735,1.59716 2.42266,0 3.22967,0.35628 5.501,2.42856 0.91198,0.83207 2.26516,1.8201 3.00707,2.19561 0.74191,0.37552 1.90058,1.09522 2.57483,1.59934 2.54776,1.90489 4.69919,2.1963 16.21513,2.1963 12.05414,0 12.67125,0.10091 18.43843,3.01505 3.23524,1.63475 7.22194,4.67288 7.22194,5.50358 0,0.21078 0.84707,1.26711 1.88238,2.3474 1.43924,1.50177 2.17074,1.96641 3.10731,1.97372 2.86224,0.0223 4.26542,0.68256 6.5115,3.06373 1.21369,1.28669 2.67871,3.06114 3.25558,3.94322 2.68886,4.11143 13.21642,14.22447 15.71378,15.09505 1.11453,0.38853 2.80776,2.90709 2.80776,4.17635 0,0.39536 0.18032,1.27292 0.40072,1.95013 0.2204,0.67721 0.59224,2.01311 0.82632,2.96866 0.3717,1.51735 0.64949,1.8364 2.1936,2.51944 1.52972,0.67666 1.82451,1.0099 2.18731,2.47254 1.0632,4.28642 1.66716,5.22996 4.10376,6.41113 2.01814,0.97832 2.9066,1.86482 7.38215,7.3659 3.8957,4.78833 5.47198,6.42815 6.72697,6.99812 0.90149,0.40942 1.92674,0.74837 2.27834,0.75321 0.3516,0.005 1.63022,0.86582 2.84139,1.91329 1.21117,1.04746 2.90817,2.49822 3.77111,3.22391 l 1.56899,1.31944 -35.68397,-0.0427 c -19.62618,-0.0235 -47.0507,0.036 -60.94339,0.13217 -14.80224,0.10247 -28.08122,0.005 -32.07547,-0.23547 z"
         style="fill:#000015;fill-opacity:0.8894472;stroke-width:0.4009434" />
    </g>
  </g>
  <g
     inkscape:groupmode="layer"
     id="layer2"
     inkscape:label="Layer 2"
     style="display:inline"
     transform="translate(-129.93158,-66.453834)">
    <g
       id="g237"
       transform="translate(-16.490135,-35.097383)">
      <g
         id="g225">
        <g
           id="g217">
          <path
             style="fill:none;stroke:#000000;stroke-width:1px;stroke-linecap:butt;stroke-linejoin:miter;stroke-opacity:1"
             d="m 153.53105,356.82785 c 0.73326,-1.93208 0.17229,-6.13978 -1.13404,-7.65476 -0.79583,-2.7953 -2.98278,-4.19947 -2.26808,-8.5053 -0.40022,-5.08097 -0.0189,-10.94344 -0.85053,-15.59304 -0.84144,-3.56121 -1.73121,-7.44925 -1.98457,-11.34039 -0.45611,-2.81085 -0.7857,-7.73295 0.85053,-9.63933 1.06746,-2.77423 0.68654,-6.68161 2.26808,-9.07232 0.31766,-2.80095 2.51133,-3.72588 3.11861,-6.23721 0.92969,-2.06622 2.08647,-4.24609 2.83509,-6.52073 0.63025,-1.1905 1.70535,-2.11271 3.11861,-3.1186 0.72609,-2.0615 3.43459,-2.61414 4.25265,-4.53616 1.09299,-1.3363 1.56736,-1.48229 2.8351,-2.8351 2.51537,-1.03853 5.01895,-1.64425 7.37125,-3.11861 2.62494,-1.24748 4.48267,-3.27627 7.65477,-3.96913 2.10785,-1.41887 6.51168,-2.44189 8.22178,-3.96914 2.31032,-0.43028 3.56692,-1.91427 5.38669,-2.8351 1.41188,-1.34821 3.4102,-2.36866 4.53615,-3.68563 3.08121,-0.50753 5.36732,-2.34779 8.5053,-2.83509 1.88897,-1.46485 4.83106,-1.09839 5.38668,-4.25265 0.74874,-1.914 1.26521,-4.73755 2.8351,-5.6702 0.8297,-2.8237 1.33426,-5.47196 1.98457,-8.22178 0.52896,-3.44017 1.06825,-6.87002 1.70106,-10.20635 1.52452,-2.82165 0.75392,-7.12751 -0.56702,-9.63934 -0.54177,-4.10328 -1.80646,-7.62427 -2.55159,-11.34039 -0.28363,-3.03083 -3.33711,-2.77432 -5.10318,-3.96914 -3.8805,-0.37197 -3.74609,-3.61568 -4.81966,-6.80423 0.37562,-4.38732 -1.52003,-6.70553 -2.55159,-9.92284 -0.40068,-3.77767 -0.82148,-9.68562 1.13404,-12.19092 1.19419,-2.52065 1.27526,-5.48375 1.13404,-9.07232 -0.40679,-2.9534 -1.34152,-5.37887 -1.70106,-8.37953 -0.53694,-5.4819 1.21006,-8.81768 1.98457,-13.16721 0.93618,-2.35901 1.13477,-5.38816 3.71711,-6.40211 -0.86121,-1.56122 0.32657,-4.30034 1.10255,-6.35583 0.50634,-2.67839 2.18865,-4.02836 2.8351,-6.80424 0.6404,-1.81478 3.3538,-1.8868 4.82092,-3.48286 1.12604,-0.53947 2.27104,-2.02226 3.11736,-3.32138 1.3879,-1.6362 4.13474,-1.91346 5.9537,-3.1186 2.5562,-0.94042 5.82007,-1.17317 8.7888,-1.70106 2.80928,-0.96766 6.55655,-1.51574 9.92285,-1.98457 3.10522,-0.45051 6.5165,-1.03984 9.67132,-1.41755 5.50927,-0.46873 12.89356,-0.47859 18.39615,0 1.47582,0.79721 8.89984,-2.8804 9.78428,-1.61975 0.95721,0.93503 -1.88014,5.64113 -0.63586,7.00243 2.18645,1.36449 2.67519,-0.36782 5.14745,0.98326 1.16067,1.34923 0.2183,5.70446 1.29717,6.95902 2.04343,1.13471 4.07083,2.90908 4.6779,3.61475 0.75372,1.77446 -3.02287,5.00026 -2.97685,8.29266 -1.65594,1.58021 0.68879,7.03434 1.13404,7.93828 0.75041,2.4627 0.72122,5.705 1.41755,8.22178 1.19006,2.11755 1.66108,4.95416 2.55159,7.37126 -0.0868,3.24339 -0.59999,6.34082 1.13404,8.22178 0.12686,3.33997 0.15446,6.58069 -1.41755,8.22179 -0.81349,4.16151 -1.47705,7.56745 -1.13404,12.47443 0.44298,3.80966 1.39221,7.11309 1.13404,11.6239 -0.4539,2.39695 -0.43834,7.00061 -1.13404,8.22178 -1.78767,1.51428 -1.91305,3.82298 -3.40212,5.6702 -1.35074,2.42939 -1.08335,6.47691 -2.26807,9.07231 -0.33041,2.26313 -1.66823,3.80488 -2.55159,5.6702 -1.46753,1.93459 -2.89242,3.91181 -3.11861,7.08774 -1.10746,1.44413 -2.34488,2.7583 -3.96914,3.68563 -0.21811,1.4146 -1.83769,3.59381 -1.70106,6.52073 -0.7083,4.89865 -1.41967,10.2799 -1.41754,15.87654 -1.06387,3.38833 -0.80107,9.09102 0.28351,11.90741 1.88347,1.02495 2.82482,2.95265 5.67019,3.96914 1.45248,0.58241 1.81564,2.47316 3.68563,3.11861 1.28135,1.29003 3.31785,1.50232 4.53616,3.11861 2.99487,1.08866 4.86962,1.69813 8.97854,1.41755 h 16.41158 c 2.95105,0.38854 5.05335,1.40665 7.49701,2.55158 1.68938,1.21516 3.86142,1.45198 5.38669,3.11861 0.96437,1.30371 2.75772,1.77845 3.11861,3.68563 1.59499,0.67034 2.4537,4.14902 4.53615,3.40212 2.36661,0.51194 4.97417,0.084 5.38669,2.26808 1.92647,0.68101 2.32451,2.77311 3.96913,3.96913 1.0994,1.45219 1.78309,3.32009 3.40212,4.25265 1.24694,1.96015 3.29092,2.80418 4.25265,4.81967 0.96355,1.51632 2.51137,2.90363 4.53616,3.68562 0.89469,1.42508 3.0324,3.09496 5.10317,3.68563 1.04843,1.31215 2.35176,3.2444 1.98457,5.10318 1.5707,1.75861 0.29738,6.03152 3.68563,6.23721 2.69374,0.61307 1.79004,5.18069 3.40212,6.80424 0.59962,2.27215 3.54623,1.84181 4.81966,3.11861 1.29872,1.3994 2.68581,3.57723 3.96914,4.81966 1.15555,1.32372 2.51264,3.27448 3.71602,4.69383 1.66397,1.9793 2.89915,4.09268 6.49033,4.37849 1.57369,0.91383 2.76013,1.92862 3.96914,3.1186 1.43717,1.53668 4.16375,2.5062 4.14114,3.97525 1.89215,2.64383 -1.23511,3.69397 -1.02253,0.56091 -23.37071,0.20222 -46.45033,-0.29832 -69.74341,-0.28351 -7.10456,1.46028 -16.0817,0.64213 -24.19432,0.85053 -13.74033,0.11207 -27.34069,-0.11377 -40.72943,-0.85053 -5.93447,-0.68076 -13.14825,-0.0822 -19.56217,-0.28351 -9.02499,0.98391 -19.60254,0.41525 -29.45968,0.56702 -9.58429,0.34218 -18.49117,-0.95107 -28.09281,-0.56702 -10.80881,-1.00315 -21.27174,-1.18143 -32.60363,-1.13404 -1.34431,-0.0458 -1.49183,0.55422 -1.98456,1.70106 z"
             id="path188"
             inkscape:connector-curvature="0"
             sodipodi:nodetypes="cccccccccccccccccccccccccccccccccccccccccccccccccccccccccccccccccccccccccccccccccccccccccccccccc" />
          <path
             style="fill:none;stroke:#000000;stroke-width:1px;stroke-linecap:butt;stroke-linejoin:miter;stroke-opacity:1"
             d="m 206.67864,165.64148 c 0.28646,1.25966 1.95356,-0.0948 2.55159,1.13404 1.264,0.53156 1.82651,1.76461 3.11861,2.26807 0.36607,1.35687 1.32931,2.06267 1.70105,3.40212 0.74707,0.67528 1.11647,1.94672 1.3644,2.97686 1.11889,0.73456 1.5103,2.00695 2.32123,2.97685 0.78677,1.13073 1.37263,1.22798 2.55159,2.26808 1.15873,0.1996 3.80212,0.81157 4.25265,-0.28351 1.27752,-0.30297 0.94705,-1.91804 1.70106,-3.11861 0.4314,-0.93407 0.25357,-2.49418 0.28351,-3.83287 0.0745,-1.51116 -0.0441,-2.83294 -0.28351,-4.0295 0,-2.10438 0,-4.20875 0,-6.31312 0.82153,-1.40499 0.61504,-3.60204 1.98456,-4.25265 0.34734,-1.53027 1.25854,-2.50854 1.41755,-4.25265 0.0851,-1.52596 0.42326,-2.80101 0.28351,-4.5517 -0.0725,-1.96206 0.40571,-3.82863 -1.13404,-5.08763 -1.0979,-0.64047 -1.75129,-1.85328 -2.26807,-3.40212 -0.59634,-1.01538 -0.61862,-2.60486 -0.56702,-4.26819 -0.0582,-1.37818 0.006,-2.78609 0.24364,-3.78083 0.50689,-1.07415 0.72164,-2.22094 1.17391,-3.29137 0.95675,-0.96184 3.3826,-0.90671 5.38668,-1.13404 1.68501,-0.43178 2.70907,-1.39779 4.81967,-1.41755 1.52264,-0.66953 3.47241,-0.25196 4.80639,-0.86896 1.41523,-0.50731 2.77995,-0.63168 4.56498,-0.54858 5.28699,1e-4 10.57406,-1.4e-4 15.861,0 1.19976,1.39227 3.96109,0.97254 6.11588,1.70037 1.36887,0.56322 2.30421,1.55699 4.09047,1.70174 1.56877,0.0567 3.02212,-0.002 4.25265,-0.28351 1.02856,-0.81916 2.82852,-1.17299 4.64774,-1.13404 1.96983,-0.11995 3.38184,-0.75576 5.11094,-1.13742 1.659,-0.13767 3.21728,-0.39162 5.13107,-0.28013 0.51794,0 1.03588,0 1.55382,0"
             id="path213"
             inkscape:connector-curvature="0" />
        </g>
        <path
           style="fill:none;stroke:#000000;stroke-width:1px;stroke-linecap:butt;stroke-linejoin:miter;stroke-opacity:1"
           d="m 232.76154,228.01363 c 1.62995,0.18274 2.98351,1.1411 4.48284,1.18592 1.41867,0.098 2.73789,1.67881 3.81909,2.04398 1.03063,0.92227 2.15145,1.31092 3.5784,1.98777 1.30608,0.70083 2.9833,1.27162 4.00763,2.32898 1.64112,0.40546 2.77657,1.88975 4.50153,2.09227 1.90508,0.17281 3.72698,0.74104 5.65975,0.8881 3.12615,-0.0862 6.26025,-0.0127 9.38949,-0.0372 1.14386,-0.69863 3.10739,-0.59481 4.11848,-1.7882 1.52991,-0.43008 3.1084,-0.68141 4.50068,-1.49135 1.44301,-0.94457 2.4548,-2.20969 4.25184,-2.55743 l 0.17045,-0.11672"
           id="path219"
           inkscape:connector-curvature="0" />
      </g>
      <path
         inkscape:connector-curvature="0"
         id="path229"
         d="m 213.0681,248.52711 c -0.46217,2.31762 0.91864,0.40309 1.2653,0.74976 0.0668,0.0668 -0.0668,0.21668 0,0.28351 0.0682,0.0682 1.06582,-0.0682 1.13404,0 0.0668,0.0668 -0.0668,0.21668 0,0.28351 0.0668,0.0668 0.21669,-0.0668 0.28351,0 0.0668,0.0668 -0.0668,0.21668 0,0.28351 0.13365,0.13364 0.43338,-0.13365 0.56702,0 0.0668,0.0668 -0.0668,0.21668 0,0.2835 0.0668,0.0668 0.21669,-0.0668 0.28351,0 0.0668,0.0668 -0.0668,0.21669 0,0.28351 0.13365,0.13365 0.43337,-0.13364 0.56702,0 0.0668,0.0668 -0.0668,0.21669 0,0.28351 0.0668,0.0668 0.19899,-0.0423 0.28351,0 0.11954,0.0598 0.16397,0.22375 0.28351,0.28351 0.0845,0.0423 0.21669,-0.0668 0.28351,0 0.0668,0.0668 -0.0668,0.21669 0,0.28351 0.14176,0.14176 0.70878,-0.14175 0.85053,0 0.0668,0.0668 -0.0668,0.21669 0,0.28351 0.14176,0.14176 0.70878,-0.14175 0.85053,0 0.0668,0.0668 -0.0668,0.21669 0,0.28351 0.13365,0.13365 0.43337,-0.13364 0.56702,0 0.0668,0.0668 -0.0668,0.21669 0,0.28351 0.14176,0.14176 0.70877,-0.14175 0.85053,0 0.37801,0.37802 -0.47252,0.28351 0.28351,0.28351 0.0945,0 0.18901,0 0.28351,0 0.0945,0 0.21669,-0.0668 0.28351,0 0.0668,0.0668 -0.0668,0.21669 0,0.28351 0.13365,0.13365 0.43337,-0.13364 0.56702,0 0.0668,0.0668 -0.0668,0.21669 0,0.28351 0.0668,0.0668 0.19898,-0.0423 0.28351,0 0.11954,0.0598 0.16397,0.22374 0.28351,0.28351 0.11241,0.0562 0.79257,-0.058 0.85053,0 0.0668,0.0668 -0.0668,0.21669 0,0.28351 0.058,0.058 0.73812,-0.0562 0.85053,0 0.11954,0.0598 0.16397,0.22374 0.28351,0.28351 0.10252,0.0513 1.22035,0 1.41755,0 1.60655,0 3.21311,0 4.81966,0 0.0688,0 0.84141,-0.009 0.85053,0 0.0668,0.0668 -0.0668,0.21669 0,0.28351 0.13365,0.13365 0.43337,-0.13365 0.56702,0 0.0668,0.0668 -0.0668,0.21669 0,0.28351 0.14176,0.14176 0.70878,-0.14175 0.85053,0 0.0668,0.0668 -0.0668,0.21669 0,0.28351 0.14176,0.14176 0.70878,-0.14175 0.85053,0 0.0668,0.0668 -0.0668,0.21669 0,0.28351 0.058,0.058 0.73812,-0.0562 0.85053,0 0.23908,0.11954 0.32794,0.44748 0.56702,0.56702 0.0845,0.0423 0.21668,-0.0668 0.28351,0 0.0668,0.0668 -0.0668,0.21669 0,0.28351 0.0668,0.0668 0.21668,-0.0668 0.28351,0 0.0668,0.0668 -0.0668,0.21669 0,0.28351 0.58659,0.58659 -0.0229,-0.89639 0.56702,0.28351 0.0423,0.0845 -0.0668,0.21669 0,0.28351 0.0668,0.0668 0.19898,-0.0423 0.28351,0 0.11954,0.0598 0.16397,0.22374 0.28351,0.28351 0.0845,0.0423 0.21668,-0.0668 0.28351,0 0.0668,0.0668 -0.0668,0.21669 0,0.28351 0.0668,0.0668 0.21668,-0.0668 0.28351,0 0.0668,0.0668 -0.0668,0.21669 0,0.28351 0.0668,0.0668 0.21668,-0.0668 0.28351,0 0.0668,0.0668 -0.0668,0.21669 0,0.28351 0.0668,0.0668 0.21668,-0.0668 0.28351,0 0.0668,0.0668 -0.0668,0.21669 0,0.28351 0.0668,0.0668 0.21668,-0.0668 0.28351,0 0.0668,0.0668 -0.0668,0.21669 0,0.28351 0.0668,0.0668 0.21668,-0.0668 0.28351,0 0.0668,0.0668 -0.0668,0.21668 0,0.28351 0.0668,0.0668 0.21668,-0.0668 0.28351,0 0.0668,0.0668 -0.0668,0.21668 0,0.28351 0.0668,0.0668 0.21668,-0.0668 0.28351,0 0.0668,0.0668 -0.0668,0.21668 0,0.28351 0.0668,0.0668 0.21668,-0.0668 0.28351,0 0.0668,0.0668 -0.0668,0.21668 0,0.28351 0.14175,0.14175 0.70877,-0.14176 0.85053,0 0.0668,0.0668 -0.0668,0.21668 0,0.28351 0.0668,0.0668 0.21668,-0.0668 0.28351,0 0.0668,0.0668 -0.0668,0.21668 0,0.28351 0.13364,0.13365 0.43337,-0.13365 0.56701,0 0.0668,0.0668 -0.0668,0.21668 0,0.28351 0.13365,0.13365 0.43338,-0.13365 0.56702,0 0.0668,0.0668 -0.0668,0.21668 0,0.28351 0.0668,0.0668 0.18901,0 0.28351,0 0.0945,0 0.18901,0 0.28351,0 0.75603,0 1.51206,0 2.26808,0 0.18901,0 0.37802,0 0.56702,0 0.0945,0 0.28351,-0.0945 0.28351,0 0,0.0945 -0.28351,-0.0945 -0.28351,0 0,0.58995 0.39759,0.11407 0.56702,0.28351 0.0668,0.0668 -0.0668,0.21668 0,0.28351 0.0668,0.0668 0.21669,-0.0668 0.28351,0 0.0668,0.0668 -0.0668,0.21668 0,0.28351 0.0668,0.0668 0.21669,-0.0668 0.28351,0 0.0668,0.0668 -0.0668,0.21668 0,0.28351 0.0668,0.0668 0.19898,-0.0423 0.28351,0 0.11954,0.0598 0.16397,0.22374 0.28351,0.28351 0.0845,0.0423 0.21669,-0.0668 0.28351,0 0.0668,0.0668 -0.0668,0.21668 0,0.28351 0.0668,0.0668 0.21669,-0.0668 0.28351,0 0.0668,0.0668 -0.0668,0.21668 0,0.28351 0.0668,0.0668 0.21669,-0.0668 0.28351,0 0.0668,0.0668 -0.0668,0.21668 0,0.28351 0.13365,0.13364 0.43337,-0.13365 0.56702,0 0.0668,0.0668 -0.0668,0.21668 0,0.28351 0.18898,0.18897 0.37804,-0.18898 0.56702,0 0.0668,0.0668 -0.0668,0.21668 0,0.28351 0.13365,0.13364 0.43337,-0.13365 0.56702,0 0.0668,0.0668 -0.0668,0.21668 0,0.28351 0.18898,0.18897 0.37804,-0.18898 0.56702,0 0.0668,0.0668 -0.0668,0.21668 0,0.2835 0.13365,0.13365 0.43337,-0.13364 0.56702,0 0.0668,0.0668 -0.0668,0.21669 0,0.28351 0.13365,0.13365 0.43337,-0.13364 0.56702,0 0.0668,0.0668 -0.0668,0.21669 0,0.28351 0.0668,0.0668 0.21668,-0.0668 0.28351,0 0.0668,0.0668 -0.0668,0.21669 0,0.28351 0.14175,0.14176 0.70877,-0.14175 0.85053,0 0.0668,0.0668 -0.0668,0.21669 0,0.28351 0.14175,0.14176 0.70877,-0.14175 0.85053,0 0.0668,0.0668 -0.0668,0.21669 0,0.28351 0.0114,0.0114 1.02992,0 1.13404,0 0.0945,0 0.189,0 0.2835,0 0.0945,0 0.21669,-0.0668 0.28351,0 0.0668,0.0668 -0.0668,0.21669 0,0.28351 0.14176,0.14176 0.70878,-0.14175 0.85053,0 0.0668,0.0668 -0.0668,0.21669 0,0.28351 0.0668,0.0668 0.18901,0 0.28351,0 0.56702,0 1.13404,0 1.70106,0 0.10412,0 1.12263,-0.0114 1.13404,0 0.0668,0.0668 -0.0668,0.21669 0,0.28351 0.0129,0.0129 1.28388,0 1.41755,0 0.14825,0 1.05949,-0.0373 1.13404,0 0.11954,0.0598 0.16397,0.22374 0.28351,0.28351 0.1538,0.0769 1.05646,-0.0776 1.13404,0 0.0668,0.0668 -0.0668,0.21669 0,0.28351 0.0668,0.0668 0.18901,0 0.28351,0 0.47252,0 0.94503,0 1.41755,0 0.0945,0 0.21668,-0.0668 0.28351,0 0.0668,0.0668 -0.0668,0.21669 0,0.28351 0.0668,0.0668 0.21668,-0.0668 0.28351,0 0.0668,0.0668 -0.0668,0.21669 0,0.28351 0.0878,0.0878 1.32976,-0.0878 1.41755,0 0.0668,0.0668 -0.0668,0.21669 0,0.28351 0.009,0.009 0.78177,0 0.85053,0 0.0687,0 0.84141,-0.009 0.85053,0 0.0668,0.0668 -0.0668,0.21669 0,0.28351 0.0668,0.0668 0.189,0 0.2835,0 0.20096,0 1.62776,-0.0367 1.70106,0 0.11954,0.0598 0.16398,0.22374 0.28351,0.28351 0.0845,0.0423 0.21669,-0.0668 0.28351,0 0.0668,0.0668 -0.0668,0.21669 0,0.28351 0.0878,0.0878 1.32976,-0.0878 1.41755,0 0.0668,0.0668 -0.0668,0.21669 0,0.28351 0.0668,0.0668 0.18901,0 0.28351,0 0.0945,0 0.18901,0 0.28351,0 0.0688,0 0.84141,-0.009 0.85053,0 0.0668,0.0668 -0.0668,0.21669 0,0.28351 0.0878,0.0878 1.32976,-0.0878 1.41755,0 0.0668,0.0668 -0.0668,0.21669 0,0.28351 0.0776,0.0776 0.98024,-0.0769 1.13404,0 0.11954,0.0598 0.16397,0.22374 0.28351,0.28351 0.0845,0.0423 0.18901,0 0.28351,0 0.0945,0 0.18901,0 0.28351,0 0.47252,0 0.94503,0 1.41755,0 0.75602,0 1.51205,0 2.26808,0 0.28351,0 0.56702,0 0.85053,0 0.0945,0 0.189,0 0.28351,0 0.0945,0 0.30912,0.091 0.28351,0 -0.0564,-0.20023 -0.27652,-0.31083 -0.41478,-0.46625"
         style="fill:none;stroke:#000000;stroke-width:1px;stroke-linecap:butt;stroke-linejoin:miter;stroke-opacity:1" />
    </g>
  </g>
</svg>
