<?xml version="1.0" encoding="UTF-8" standalone="no"?>
<!-- Created with Inkscape (http://www.inkscape.org/) -->

<svg
   xmlns:dc="http://purl.org/dc/elements/1.1/"
   xmlns:cc="http://creativecommons.org/ns#"
   xmlns:rdf="http://www.w3.org/1999/02/22-rdf-syntax-ns#"
   xmlns:svg="http://www.w3.org/2000/svg"
   xmlns="http://www.w3.org/2000/svg"
   xmlns:sodipodi="http://sodipodi.sourceforge.net/DTD/sodipodi-0.dtd"
   xmlns:inkscape="http://www.inkscape.org/namespaces/inkscape"
   inkscape:version="0.92.3 (2405546, 2018-03-11)"
   sodipodi:docname="face-colour.svg"
   viewBox="0 0 252.72798 252.74451"
   height="252.74451"
   width="252.72798"
   id="svg176"
   version="1.1">
  <metadata
     id="metadata182">
    <rdf:RDF>
      <cc:Work
         rdf:about="">
        <dc:format>image/svg+xml</dc:format>
        <dc:type
           rdf:resource="http://purl.org/dc/dcmitype/StillImage" />
        <dc:title />
      </cc:Work>
    </rdf:RDF>
  </metadata>
  <defs
     id="defs180" />
  <sodipodi:namedview
     inkscape:current-layer="svg176"
     inkscape:window-maximized="1"
     inkscape:window-y="-8"
     inkscape:window-x="-8"
     inkscape:cy="257.64445"
     inkscape:cx="-41.939424"
     inkscape:zoom="1.2470588"
     showgrid="false"
     id="namedview178"
     inkscape:window-height="1017"
     inkscape:window-width="1920"
     inkscape:pageshadow="2"
     inkscape:pageopacity="0"
     guidetolerance="10"
     gridtolerance="10"
     objecttolerance="10"
     borderopacity="1"
     bordercolor="#666666"
     pagecolor="#ffffff" />
  <g
     inkscape:groupmode="layer"
     id="layer2"
     inkscape:label="Layer 2"
     transform="translate(-147.35822,-85.073947)">
    <g
       id="g4823"
       transform="translate(138.03112,75.275015)">
      <path
         inkscape:connector-curvature="0"
         id="path274"
         d="m 79.944125,85.210202 c -0.9684,-1.07709 -2.64149,-3.61684 -3.71799,-5.64389 -1.99462,-3.75588 -4.17634,-6.14155 -6.32318,-6.91425 -1.05158,-0.37849 -1.10289,-0.52027 -1.10888,-3.064 -0.003,-1.46693 -0.37505,-4.38118 -0.82577,-6.47611 -1.14755,-5.33376 -1.06125,-8.47162 0.3948,-14.35543 1.4258,-5.76157 2.43914,-8.25404 3.6107,-8.88103 0.63275,-0.33864 0.78256,-0.69295 0.60019,-1.41955 -0.29653,-1.18147 1.43035,-6.54747 3.32328,-10.32652 1.09163,-2.17935 1.67597,-2.86997 2.99969,-3.54528 0.90418,-0.46128 2.86284,-2.0399 4.35258,-3.50803 2.97121,-2.92813 6.13554,-4.50281 10.63028,-5.29001 1.31183,-0.22975 4.55025,-0.86313 7.196475,-1.40751 10.86892,-2.23596 18.02049,-2.98833 28.40525,-2.98833 8.48494,0 10.03485,-0.0995 12.49097,-0.80189 4.23991,-1.2124999 4.24604,-1.2102699 3.57696,1.30307 -1.14245,4.29146 -0.5548,5.51297 2.65219,5.51297 2.31233,0 2.79208,0.57657 2.79208,3.35556 0,2.65138 0.47735,3.52005 2.96746,5.40011 1.23465,0.93216 2.2448,1.96562 2.2448,2.29659 0,0.33096 -0.4541,1.49788 -1.00911,2.59314 -0.97143,1.91702 -1.0725,1.99123 -2.70637,1.98697 -1.72316,-0.004 -9.59514,1.30319 -12.52272,2.08024 -3.24508,0.86132 -5.99087,0.85276 -7.91696,-0.0247 -3.74875,-1.70775 -6.90183,-2.16939 -15.93918,-2.33363 -9.16669,-0.1666 -15.27091,0.40335 -20.241815,1.88998 -1.32631,0.39666 -3.3136,0.84653 -4.4162,0.99972 -2.91496,0.40501 -3.29351,0.73487 -4.19582,3.65622 -1.48435,4.80574 -0.77999,9.68327 1.81279,12.55316 1.37147,1.51805 1.38068,1.5539 1.38068,5.37483 0,3.81897 -0.68215,6.96827 -1.79455,8.285 -0.27945,0.33077 -0.82651,1.57905 -1.21569,2.77395 -0.60952,1.8714 -0.6688,3.02099 -0.42765,8.29336 0.23439,5.12498 0.17368,6.43378 -0.37316,8.04446 -0.77573,2.28489 -1.08556,2.52499 -3.26854,2.53303 -1.49061,0.005 -1.85303,-0.20093 -3.42759,-1.95222 z"
         style="fill:#552200;stroke-width:0.4009434" />
      <path
         inkscape:connector-curvature="0"
         id="path276"
         d="m 134.63099,175.24179 c -1.54363,-0.41146 -3.79894,-0.8685 -5.01179,-1.01563 -1.21286,-0.14714 -2.38561,-0.39603 -2.60613,-0.55307 -0.22052,-0.15705 -2.20519,-0.50772 -4.41038,-0.77926 -2.20519,-0.27154 -4.86771,-0.66042 -5.91671,-0.86418 -2.26983,-0.44089 -7.00251,-2.75034 -8.07822,-3.94199 -0.55252,-0.61209 -1.24223,-0.84612 -2.49354,-0.84612 -2.18713,0 -4.29394,-1.09319 -6.563452,-3.40565 -2.39492,-2.44024 -5.04912,-3.40991 -9.3393,-3.41196 -2.85829,-0.001 -3.79531,-0.19995 -7.10171,-1.50502 -2.09492,-0.82689 -4.46174,-1.90873 -5.25958,-2.40408 -0.79785,-0.49536 -1.74508,-0.90065 -2.10496,-0.90065 -0.35988,0 -0.65432,-0.062 -0.65432,-0.1377 0,-0.67739 1.7863,-5.10462 2.3957,-5.9376 0.9458,-1.29279 2.44909,-7.1862 3.58575,-14.05735 0.46376,-2.8035 1.02169,-5.56672 1.23984,-6.14049 0.63542,-1.67127 0.46008,-5.3329 -0.39167,-8.17955 -0.43357,-1.44901 -1.35791,-5.07031 -2.05409,-8.04731 -0.69618,-2.97701 -1.49005,-5.77548 -1.76415,-6.21883 -0.27411,-0.44335 -1.55997,-1.2194 -2.85747,-1.72455 -4.98753,-1.94176 -5.50487,-2.61589 -6.18792,-8.063304 -0.22874,-1.82425 -0.95347,-4.65862 -1.62058,-6.33798 -1.06682,-2.68556 -1.20918,-3.5307 -1.22733,-7.28649 -0.0182,-3.75655 0.10852,-4.56199 1.09383,-6.95494 0.66454,-1.6139 1.35304,-2.70636 1.70562,-2.70636 1.41276,0 4.00824,2.64496 5.50819,5.6132 1.7292,3.42192 4.06316,6.74932 5.56024,7.92692 0.56033,0.44076 1.83166,0.92328 2.82517,1.07226 2.57953,0.38683 3.88068,-0.47892 4.80451,-3.19678 0.62805,-1.84769 0.68418,-2.8986 0.43303,-8.10686 -0.29917,-6.20391 0.1341,-9.2837 1.53243,-10.89309 1.56859,-1.80534 2.74278,-9.61422 1.90805,-12.68941 -0.24332,-0.89644 -0.91125,-2.0692 -1.48428,-2.60613 -0.57303,-0.53694 -1.29676,-1.58466 -1.60828,-2.32828 -0.79094,-1.888 -0.74336,-7.54724 0.0801,-9.52471 0.7443,-1.78742 1.16595,-2.13926 2.57393,-2.14778 0.55837,-0.003 2.00177,-0.27552 3.20755,-0.60477 7.659402,-2.09145 11.774902,-2.60891 20.749422,-2.60891 5.45479,0 8.90227,0.15511 9.15926,0.4121 0.22666,0.22666 1.50536,0.58817 2.84155,0.80336 1.3362,0.21519 3.46233,0.86412 4.72474,1.44207 1.9115,0.87512 2.64706,1.00947 4.39915,0.80355 1.15712,-0.136 2.75496,-0.51932 3.55075,-0.85182 0.79579,-0.3325 2.12928,-0.60669 2.96331,-0.6093 0.83403,-0.003 2.50875,-0.27112 3.7216,-0.59666 1.21285,-0.32554 3.26219,-0.59404 4.55408,-0.59666 l 2.34889,-0.005 -0.32914,1.1026 c -0.53184,1.78162 -0.27124,4.20365 0.77427,7.19613 0.53796,1.53976 1.11217,3.95463 1.27602,5.36638 0.16385,1.41175 0.90661,4.40519 1.65057,6.65209 1.0593,3.19925 1.35267,4.74622 1.35267,7.13277 0,1.80185 0.24582,3.63582 0.60141,4.48688 0.81327,1.94641 0.78762,6.63442 -0.0451,8.24473 -1.71121,3.30913 -2.16935,10.93745 -1.1018,18.34606 0.5649,3.92031 0.59395,5.31381 0.19645,9.422174 -0.33004,3.41097 -0.67648,5.11465 -1.18425,5.82378 -1.82438,2.5478 -3.69193,7.0232 -4.31233,10.33411 -0.85878,4.58296 -1.7416,6.85713 -4.13057,10.64038 -1.08344,1.71577 -2.09379,3.78774 -2.24523,4.60438 -0.36102,1.94683 -1.74666,3.72431 -3.66707,4.70409 -0.8518,0.43458 -2.42326,1.37406 -3.49213,2.08773 -1.06887,0.71367 -2.69355,1.49811 -3.61039,1.74321 -0.91685,0.2451 -1.86708,0.60939 -2.11163,0.80953 -1.15224,0.94304 -4.60884,1.55354 -8.77707,1.55019 -5.79863,-0.005 -9.85418,-0.75295 -12.62971,-2.3303 -1.21286,-0.68927 -3.64859,-2.0014 -5.41274,-2.91586 -1.76415,-0.91445 -3.92925,-2.14831 -4.81132,-2.7419 -0.88208,-0.5936 -2.811082,-1.39906 -4.286672,-1.78992 -2.4935,-0.66049 -3.53173,-0.6258 -3.53173,0.11801 0,0.30329 3.86928,1.65333 4.73854,1.65333 0.25199,0 1.40889,0.60729 2.570892,1.34954 1.16201,0.74224 3.37571,2.0082 4.91935,2.81324 1.54363,0.80504 3.79894,2.03104 5.01179,2.72444 2.90036,1.65817 6.53558,2.28742 13.36481,2.31338 5.25288,0.02 5.70539,-0.0426 8.55034,-1.18173 1.65216,-0.66156 3.22561,-1.20283 3.49655,-1.20283 0.27094,0 1.34613,-0.54128 2.38929,-1.20283 2.19844,-1.39421 2.45742,-1.45679 2.07412,-0.50118 -0.43194,1.07686 -1.69183,10.83019 -2.26591,17.54127 -0.89339,10.44397 -0.60544,13.67466 1.38047,15.48851 l 1.25979,1.15064 -1.79336,-0.0362 c -0.98635,-0.0199 -3.05634,-0.37283 -4.59997,-0.7843 z"
         style="fill:#e9c6af;stroke-width:0.4009434" />
      <path
         inkscape:connector-curvature="0"
         id="path4818"
         d="m 133.35225,262.26759 c -3.74883,-0.22569 -12.4092,-0.35366 -19.24529,-0.2844 -26.985352,0.27344 -50.251972,0.13592 -61.143872,-0.36141 -6.28478,-0.28696 -17.13259,-0.61436 -24.10623,-0.72754 l -12.67936,-0.20578 -0.22164,-1.86019 c -0.1219,-1.02309 -0.89988,-3.21336 -1.72884,-4.86725 l -1.50721,-3.00708 -0.4868,-9.82311 c -0.34249,-6.9111 -0.72853,-10.89283 -1.30223,-13.4316 -1.0707497,-4.73834 -1.8253297,-11.47479 -1.5446797,-13.78996 0.12313,-1.01576 0.49232,-2.38811 0.8204097,-3.04967 0.32809,-0.66155 0.8623,-2.76412 1.18713,-4.67237 0.36671,-2.15429 1.0783,-4.43417 1.87712,-6.01415 0.70758,-1.39953 1.83557,-3.62716 2.50664,-4.95027 0.67107,-1.32311 1.60314,-3.33734 2.07128,-4.47606 0.83799,-2.0384 2.31447,-3.75745 8.14817,-9.48686 2.27638,-2.23569 3.37644,-2.97445 6.01075,-4.03661 1.77343,-0.71506 4.46244,-2.04438 5.97557,-2.95405 1.51314,-0.90966 5.00646,-2.64211 7.76294,-3.84988 7.67942,-3.36477 9.55906,-4.36907 13.03066,-6.96232 2.39776,-1.7911 4.32101,-2.8093 7.61793,-4.03307 2.42571,-0.90039 5.09505,-1.92527 5.93187,-2.27751 2.33816,-0.9842 4.03614,-0.89068 5.87066,0.32334 0.88653,0.58669 1.8503,1.0667 2.1417,1.0667 0.2914,0 0.70123,0.15818 0.91072,0.35151 1.05344,0.97217 5.57583,2.05584 8.70207,2.08523 4.13635,0.0389 6.51331,0.8552 8.87879,3.04928 3.084662,2.86115 4.642172,3.73568 6.653102,3.73568 1.34074,0 2.07656,0.24203 2.81377,0.92551 1.33675,1.23933 5.42672,3.34926 7.41336,3.8244 0.88207,0.21096 2.86674,0.49974 4.41037,0.64174 1.54364,0.14199 3.79894,0.51375 5.0118,0.82613 1.21285,0.31238 3.28773,0.68959 4.61085,0.83823 1.32311,0.14864 2.58608,0.40448 2.8066,0.56853 0.68837,0.51208 6.79417,1.59716 8.98735,1.59716 2.42266,0 3.22967,0.35628 5.501,2.42856 0.91198,0.83207 2.26516,1.8201 3.00707,2.19561 0.74191,0.37552 1.90058,1.09522 2.57483,1.59934 2.54776,1.90489 4.69919,2.1963 16.21513,2.1963 12.05414,0 12.67125,0.10091 18.43843,3.01505 3.23524,1.63475 7.22194,4.67288 7.22194,5.50358 0,0.21078 0.84707,1.26711 1.88238,2.3474 1.43924,1.50177 2.17074,1.96641 3.10731,1.97372 2.86224,0.0223 4.26542,0.68256 6.5115,3.06373 1.21369,1.28669 2.67871,3.06114 3.25558,3.94322 2.68886,4.11143 13.21642,14.22447 15.71378,15.09505 1.11453,0.38853 2.80776,2.90709 2.80776,4.17635 0,0.39536 0.18032,1.27292 0.40072,1.95013 0.2204,0.67721 0.59224,2.01311 0.82632,2.96866 0.3717,1.51735 0.64949,1.8364 2.1936,2.51944 1.52972,0.67666 1.82451,1.0099 2.18731,2.47254 1.0632,4.28642 1.66716,5.22996 4.10376,6.41113 2.01814,0.97832 2.9066,1.86482 7.38215,7.3659 3.8957,4.78833 5.47198,6.42815 6.72697,6.99812 0.90149,0.40942 1.92674,0.74837 2.27834,0.75321 0.3516,0.005 1.63022,0.86582 2.84139,1.91329 1.21117,1.04746 2.90817,2.49822 3.77111,3.22391 l 1.56899,1.31944 -35.68397,-0.0427 c -19.62618,-0.0235 -47.0507,0.036 -60.94339,0.13217 -14.80224,0.10247 -28.08122,0.005 -32.07547,-0.23547 z"
         style="fill:#000015;fill-opacity:0.8894472;stroke-width:0.4009434" />
    </g>
  </g>
  <g
     inkscape:groupmode="layer"
     id="layer1"
     inkscape:label="Layer 1"
     transform="translate(-147.35822,-85.073947)" />
</svg>
